<?xml version="1.0" encoding="utf-8"?>
<!-- Generator: Adobe Illustrator 18.1.1, SVG Export Plug-In . SVG Version: 6.00 Build 0)  -->
<svg version="1.1" id="Layer_1" xmlns="http://www.w3.org/2000/svg" xmlns:xlink="http://www.w3.org/1999/xlink" x="0px" y="0px"
	 viewBox="0 0 148.1 227.8" enable-background="new 0 0 148.1 227.8" xml:space="preserve">
<path fill="#5E96C6" d="M145.6,69.3c0.2,17.3-5.9,32.1-17.4,44.8c-5.9,6.6-12.6,12.4-19.3,18.2c-2,1.7-3.9,3.5-5.9,5.3
	c-7.8,7.1-13.6,15.4-17.2,25.3c-0.8,2.3-1.8,4.6-2.9,6.8c-3.3,6.7-8.1,9.9-17.4,9.2c-7-0.5-11.1-5-13.7-11.2
	c-2.2-5.2-2.3-10.7-1.6-16.2c1.3-10.4,6.2-19.2,13.3-26.7c5.2-5.6,10.9-10.7,16.5-15.9c5.5-5.1,11-10.1,15.5-16.1
	c6.3-8.4,9.2-17.9,9.1-28.2c-0.2-15.5-12.6-29.2-28-31C64.6,32.3,55,36.5,47.3,45.5c-4.2,4.8-6.2,10.5-7.5,16.6
	c-0.5,2.5-1.1,5-1.7,7.5c-1.8,7.6-6.6,11.9-14.2,13.3c-3.8,0.7-7.7,1.3-11.5-0.1c-7.2-2.6-11.1-8-11.9-15.4c-1-9.2,1-17.9,4.9-26.2
	c8.7-18.3,23-30.3,41.9-37.2c10.3-3.8,21-4.5,31.9-3.5c10.2,1,20.1,3.2,29.4,7.7c20,9.5,32.1,25.2,35.8,47.1
	C145.2,59.8,145.7,69.2,145.6,69.3z"/>
<path fill="#5E96C6" d="M41.5,75.1c3.1,9.6,8.9,16.6,18,20.6c9.1,4,18.1,3.6,27.1-0.5c0.1,0.2,0.2,0.3,0.4,0.5c-1.1,1-2.3,1.9-3.4,3
	c-5.8,5.4-11.7,10.7-17.4,16.1c-6.2,5.9-11.9,12.3-15.9,20c-2,3.8-3.4,7.7-4.3,11.9c-0.1,0.3-0.2,0.6-0.3,1.1
	c-0.6-1.2-1.1-2.2-1.6-3.2c-4.6-9.1-10.6-17.2-17-25.1c-6-7.4-12-14.8-17.8-22.3c-3.8-4.9-6.9-10.2-9-16C0.1,80.8,0,80.3,0,79.8
	c0.2,0.2,0.3,0.3,0.5,0.5c5.5,6.6,12.6,9.3,21,7.9c3.1-0.5,6.1-1.2,9-2.3c4.8-1.7,8.2-5.1,10.4-9.7C41.1,75.9,41.2,75.6,41.5,75.1z"
	/>
<path fill="#5E96C6" d="M68,192.5c9.6,0,17.4,7.6,17.4,16.9c0,9.4-7.9,17-17.5,17c-9.6,0-17.4-7.7-17.4-17
	C50.5,200.1,58.4,192.5,68,192.5z"/>
</svg>
