<?xml version="1.0" encoding="utf-8"?>
<!-- Generator: Adobe Illustrator 18.1.1, SVG Export Plug-In . SVG Version: 6.00 Build 0)  -->
<svg version="1.1" id="Layer_1" xmlns="http://www.w3.org/2000/svg" xmlns:xlink="http://www.w3.org/1999/xlink" x="0px" y="0px"
	 viewBox="0 0 776.4 227.8" enable-background="new 0 0 776.4 227.8" xml:space="preserve">
<path fill="#FFFFFF" d="M138.1,90.2c-0.3,0.6-0.5,1.2-0.8,1.8c-14.1,34.5-28.2,69-42.3,103.5c-2.7,6.7-9,9.7-15.6,7.6
	c-3.5-1.1-5.6-3.6-7-6.9c-3.8-9.3-7.6-18.5-11.4-27.8c-10.7-26.2-21.5-52.3-32.2-78.5c-0.1-0.4-0.3-0.7-0.7-1c0,0.4,0,0.8,0,1.2
	c0,33,0,66.1,0,99.1c0,6.2-2.6,10.8-8.3,13.3c-10.1,4.3-19.9-3-19.9-13c0.1-25.9,0-51.8,0-77.8c0-23.1,0.1-46.2,0-69.2
	c0-9,6.9-15.2,12.7-16.6c8.5-2.1,16.9,2.2,20.1,10.4c7.6,19.3,15.2,38.6,22.9,57.9c9.1,23.2,18.3,46.3,27.4,69.5
	c0.2,0.4,0.3,0.8,0.6,1.4c0.2-0.5,0.4-0.9,0.6-1.3c16.7-42.6,33.4-85.2,50.1-127.8c2.8-7.2,9-11,17.1-10.6
	c6.6,0.4,12.7,5.3,14.4,11.9c0.4,1.6,0.6,3.2,0.6,4.9c0,49,0,98.1,0,147.1c0,6.5-3.7,11.8-9.5,13.7c-6.1,2-12.5-0.1-16.1-5.1
	c-1.9-2.6-2.6-5.6-2.6-8.8c0-32.2,0-64.3,0-96.5c0-0.8,0-1.6,0-2.4C138.3,90.3,138.2,90.2,138.1,90.2z"/>
<path fill="#FFFFFF" d="M773.8,69.3c0.2,17.3-5.9,32.1-17.4,44.8c-5.9,6.6-12.6,12.4-19.3,18.2c-2,1.7-3.9,3.5-5.9,5.3
	c-7.8,7.1-13.6,15.4-17.2,25.3c-0.8,2.3-1.8,4.6-2.9,6.8c-3.3,6.7-8.1,9.9-17.4,9.2c-7-0.5-11.1-5-13.7-11.2
	c-2.2-5.2-2.3-10.7-1.6-16.2c1.3-10.4,6.2-19.2,13.3-26.7c5.2-5.6,10.9-10.7,16.5-15.9c5.5-5.1,11-10.1,15.5-16.1
	c6.3-8.4,9.2-17.9,9.1-28.2c-0.2-15.5-12.6-29.2-28-31c-11.9-1.4-21.5,2.9-29.2,11.9c-4.2,4.8-6.2,10.5-7.5,16.6
	c-0.5,2.5-1.1,5-1.7,7.5c-1.8,7.6-6.6,11.9-14.2,13.3c-3.8,0.7-7.7,1.3-11.5-0.1c-7.2-2.6-11.1-8-11.9-15.4c-1-9.2,1-17.9,4.9-26.2
	c8.7-18.3,23-30.3,41.9-37.2c10.3-3.8,21-4.5,31.9-3.5c10.2,1,20.1,3.2,29.4,7.7c20,9.5,32.1,25.2,35.8,47.1
	C773.4,59.8,773.9,69.2,773.8,69.3z"/>
<path fill="#FFFFFF" d="M363.9,141.2c0,0.6,0,1.1,0,1.6c0,15.7,0,31.4,0,47c0,6.7-4.4,12.1-10.7,13.6c-9.2,2.1-17.4-4.3-17.4-13.7
	c0-11.9,0-23.8,0-35.6c0-36.7,0-73.3,0-110c0-3.9,1.1-7.3,3.8-10.2c2.8-2.9,6.2-4.3,10.3-4.3c6.2,0,12.5,0,18.7,0
	c9.2,0,18.5,0,27.7,0c15.7,0,28.9,6,39.3,17.5c11.1,12.1,15.9,26.6,14.7,43c-1.6,22.5-17,42.2-38.4,49c-5.1,1.6-10.4,2.3-15.8,2.3
	c-10.2,0-20.4,0-30.6,0C365.1,141.2,364.6,141.2,363.9,141.2z M364,117.3c0.3,0,0.5,0.1,0.7,0.1c9,0,17.9,0,26.9,0
	c1.1,0,2.2-0.1,3.2-0.2c19.1-2.2,32.3-21.5,27.3-40.1c-3.7-13.8-16.5-23.6-31-23.6c-8.7,0-17.4,0-26,0c-0.3,0-0.7,0-1.1,0.1
	C364,74.7,364,96,364,117.3z"/>
<path fill="#FFFFFF" d="M283,131.4c-0.1-6.9-0.6-13.7-3.3-20c-3.7-8.6-10.2-13.4-19.5-14.6c-12.9-1.6-25.3-0.1-37.5,4.3
	c-2.3,0.8-4.5,1.7-7,1.1c-4.2-1-7-3.5-8-7.7c-1-4.2,0.4-7.7,3.8-10.4c2.7-2.1,5.9-3.5,9.2-4.6c11.5-3.7,23.3-4.8,35.3-4.2
	c8.9,0.5,17.6,2.2,25.8,5.9c14,6.3,23.2,16.8,26.5,31.9c0.9,3.9,1.2,8,1.2,12c0.1,22,0.1,44.1,0,66.1c0,6-3.7,10.9-9.3,12.2
	c-6.6,1.6-13.1-2.4-14.6-8.9c-0.4-1.8-0.3-3.6-0.5-5.7c-0.4,0.3-0.8,0.5-1.2,0.8c-8.2,5.5-16.8,10-26.4,12.4
	c-6.3,1.6-12.6,1.9-19.1,1.7c-7.4-0.1-14.7-1-21.7-3.5c-5-1.8-9.6-4.3-13.6-7.9c-5.4-5-8.5-11.2-9.7-18.4
	c-1.2-7.9-0.9-15.7,2.1-23.1c3.9-9.8,11.1-16.6,20.6-21.2c7.4-3.6,15.2-5.4,23.3-6c12.3-0.9,24.4,0.6,36.1,4.6
	c1.2,0.4,2.5,0.9,3.7,1.4C280.4,130.2,281.6,130.7,283,131.4z M283,159.9c0-3.2,0-6.3,0-9.5c0-1-0.3-1.5-1.3-1.9
	c-9.8-3.6-19.8-6-30.2-6.4c-5.7-0.2-11.3,0.4-16.8,2.1c-9.7,3.1-15.1,9.9-15.4,19.4c-0.3,8.9,3.8,15.2,12.3,18.2
	c7.8,2.8,15.8,2.8,23.8,1.4c10-1.8,18.8-6.5,27-12.3c0.3-0.2,0.6-0.8,0.6-1.3C283.1,166.4,283,163.2,283,159.9z"/>
<path fill="#FFFFFF" d="M583.5,142.3c-0.3,16.1-6.5,32.5-20.4,45.4c-12.5,11.7-27.5,16.7-44.6,15.9c-24.6-1.1-48.6-18.2-55.6-47.2
	c-5.2-21.4-1.4-41.3,12.3-58.8c10.2-12.9,23.6-20.4,40-22.2c30.8-3.3,55.1,15.1,64.4,41.3C582.2,123.9,583.5,131.6,583.5,142.3z
	 M487.1,138.6c0,10.4,1.6,17.5,5.1,24.1c9.1,17.3,29.8,23.7,46.4,14.2c8.7-5,13.8-12.7,16.7-22c2.4-7.7,2.6-15.5,1.4-23.4
	c-1.5-10.7-6.2-19.8-14.7-26.6c-7.2-5.8-15.5-8.4-24.7-6.8c-8.7,1.5-15.6,6.1-20.9,13.1C489.7,119.7,487,129.5,487.1,138.6z"/>
<path opacity="0.7" fill="#FFFFFF" d="M669.8,75.1c3.1,9.6,8.9,16.6,18,20.6c9.1,4,18.1,3.6,27.1-0.5c0.1,0.2,0.2,0.3,0.4,0.5
	c-1.1,1-2.3,1.9-3.4,3c-5.8,5.4-11.7,10.7-17.4,16.1c-6.2,5.9-11.9,12.3-15.9,20c-2,3.8-3.4,7.7-4.3,11.9c-0.1,0.3-0.2,0.6-0.3,1.1
	c-0.6-1.2-1.1-2.2-1.6-3.2c-4.6-9.1-10.6-17.2-17-25.1c-6-7.4-12-14.8-17.8-22.3c-3.8-4.9-6.9-10.2-9-16c-0.2-0.4-0.3-0.9-0.3-1.4
	c0.2,0.2,0.3,0.3,0.5,0.5c5.5,6.6,12.6,9.3,21,7.9c3.1-0.5,6.1-1.2,9-2.3c4.8-1.7,8.2-5.1,10.4-9.7
	C669.3,75.9,669.5,75.6,669.8,75.1z"/>
<path fill="#FFFFFF" d="M696.2,192.5c9.6,0,17.4,7.6,17.4,16.9c0,9.4-7.9,17-17.5,17c-9.6,0-17.4-7.7-17.4-17
	C678.8,200.1,686.7,192.5,696.2,192.5z"/>
</svg>
