<?xml version="1.0" encoding="utf-8"?>
<!-- Generator: Adobe Illustrator 16.0.0, SVG Export Plug-In . SVG Version: 6.00 Build 0)  -->
<!DOCTYPE svg PUBLIC "-//W3C//DTD SVG 1.1//EN" "http://www.w3.org/Graphics/SVG/1.1/DTD/svg11.dtd">
<svg version="1.1" id="Layer_1" xmlns="http://www.w3.org/2000/svg" xmlns:xlink="http://www.w3.org/1999/xlink" x="0px" y="0px"
	 width="1400px" height="980px" viewBox="0 0 1400 980" enable-background="new 0 0 1400 980" xml:space="preserve">
<g>
	<g>
		<g>
		</g>
	</g>
</g>
<g>
	<rect y="2.715" fill="transparent" width="1401.225" height="977.285"/>
</g>
<g opacity="0.7">
	<g>
		<path fill="#FFFFFF" d="M790.57,442.323c-14.55,6.793-8.199-9.151-27.505,2.132c-21.246,12.423-0.213,24.733-13.453,20.738
			c-15.063-4.541-17.913,1.386-26.862,6.621c-8.96,5.232-16.115,1.03-40.293,0.139c-24.171-0.896-35.942,3.533-46.684,7.115
			c-10.742,3.579,5.944-7.12-40.38-2.398c-33.373,3.405-41.978,10.39-41.978,10.39s0.448,3.568,11.196,4.401
			c10.74,0.827,27.424,0.602,27.424,0.602s106.106-1.802,126.493-1.003c24.065,0.944,44.976-2.116,62.418-0.418
			c17.276,1.694,64.464,4.588,79.683,1.007c15.221-3.583,69.396,3.581,69.396,3.581s0-115.05,0-125.797
			c0-10.74,4.219-21.396-26.345-24.769c-17.433-1.922-32.303-3.047-43.208,7.058c-9.606,8.901-16.806,21.197-9.687,36.518
			c1.88,4.058,2.476,5.267-3.524,7.27c-5.989,1.998-10.037,1.714-20.984-4.001c-13.793-7.191-31.332-1.333-40.675,12.321
			C770.006,426.613,790.57,442.323,790.57,442.323z"/>
	</g>
</g>
<circle fill="#B3EDFF" cx="728.543" cy="500.825" r="475.507"/>
<path fill="#FFFFFF" d="M933.505,225.076c0,0,91.152,1.124,102.403,0c11.245-1.125,19.688-9.566,30.939-7.318
	c11.251,2.253,16.312-0.559,16.312-0.559s2.252,7.877,22.506,7.877c20.249,0,22.497-11.797,34.877-10.399
	c12.381,1.398,42.756,10.399,59.631,10.399c16.882,0,76.514,0,76.514,0s12.376-5.625,18.001,0c5.626,5.625,37.129,0,37.129,0
	s33.758-11.392,41.625-4.012c7.886,7.388,20.261-18.496,0-18.496c-20.241,0-20.241,0-20.241,0s-9.099-29.496-38.824-24.189
	c-15.747,2.818-27.567,7.877-27.567,7.877s-2.554-48.079-44.999-41.068c-20.252,3.346-15.842-1.73-21.383-17.435
	c-8.438-23.911-61.976-46.375-86.629,7.311c-9.991,21.734-9.867,11.807-21.254,6.749c-11.386-5.06-26.957-8-40.636,19.866
	c-10.128,20.641-23.621-15.366-38.26,10.513c-14.622,25.876-21.373-12.372-39.378,7.876
	c-18.001,20.254-130.757,47.509-130.757,47.509L933.505,225.076z"/>
<g>
	<path fill="#926F4D" d="M991.152,459.824c-4.541-3.976-28.384-17.115-28.384-17.115h-41.763
		c-4.399,31.239-20.866,107.673-81.037,184.077c53.879,6.365,119.437,0.283,186.841-38.68c0.079-1.165,0.177-2.318,0.317-3.438
		C1033.124,536.276,996.747,464.718,991.152,459.824z"/>
	<path fill="#846249" d="M876.291,440.121l-8.772,1.112h-84.262c0,0-21.781,11.105-26.807,17.113
		c-5.023,6.007-39.639,76.455-33.978,124.852c0.17,1.442,0.289,2.921,0.363,4.447c20.343,10.779,101.545,33.693,156.236,40.157
		C882.958,536.543,871.892,471.361,876.291,440.121L876.291,440.121z"/>
	<g>
		<path fill="#8C465D" d="M1027.714,592.03c0.079-1.162,0.577-7.833,0.719-8.954c5.993-48.395-30.38-119.954-35.977-124.849
			c-4.544-3.976-28.382-17.115-28.382-17.115H868.26v1.113h-84.264c0,0-21.778,11.105-26.804,17.115
			c-5.026,6.005-39.64,76.455-33.979,124.848c0.167,1.442,0.286,2.929,0.364,4.451C763.955,610.043,882.574,667.251,1027.714,592.03
			z"/>
	</g>
	<g>
		<path fill="#1D2D5B" d="M880.189,357.491c-29.848,0-54.047,22.797-54.047,50.922c0,28.129,24.199,50.928,54.047,50.928
			c29.849,0,54.046-22.799,54.046-50.928C934.235,380.288,910.038,357.491,880.189,357.491z M879.809,451.813
			c-24.979,0-45.233-19.081-45.233-42.617c0-23.534,20.254-42.617,45.233-42.617c24.979,0,45.227,19.083,45.227,42.617
			C925.035,432.732,904.787,451.813,879.809,451.813z"/>
	</g>
	<g>
		<path fill="#E2D691" d="M788.58,402.51h179.385c0,0,7.284,29.712,10.734,55.965c1.949,14.871,6.896,60.203-39.099,67.386
			c0,0-85.091,4.291-115.756-2.262c-30.663-6.548-54.697-3.157-46.263-63.012C786.015,400.728,788.58,402.51,788.58,402.51z"/>
	</g>
	<g>
		<path fill="#1D2D5B" d="M972.508,455.542c-3.188-24.649-9.947-52.75-10.015-53.032l0,0l-0.024-0.105l-0.779,0.105
			c0.779,3.278,7.065,30.002,10.061,53.14c4.859,37.529-7.329,58.883-36.187,63.458c-0.256,0.014-25.896,1.312-52.954,1.312
			c-26.062,0-44.625-1.16-55.169-3.446c-3.22-0.698-6.354-1.273-9.39-1.833c-11.834-2.186-22.056-4.066-28.314-11.592
			c-6.791-8.161-8.455-22.744-5.243-45.897c6.818-49.1,9.529-54.218,9.977-54.74l0.292-0.401l-0.79-0.004
			c-2.665,2.954-7.492,35.28-10.237,55.032c-7.051,50.794,10.247,53.985,34.187,58.398c3.027,0.559,6.157,1.136,9.367,1.829
			c10.593,2.298,29.206,3.462,55.321,3.462c27.076,0,52.733-1.296,53.029-1.315c18.515-2.934,30.423-12.86,35.394-29.504
			C975.21,476.403,973.25,461.246,972.508,455.542z"/>
	</g>
	<g>
		<path fill="#1D2D5B" d="M902.805,495.439c0-15.949-11.07-28.884-24.723-28.884c-13.656,0-24.723,12.935-24.723,28.884
			c0,7.877,2.7,15.008,7.075,20.221l4.424,81.778c0,5.355,3.144,9.69,7.024,9.69h13.167c3.878,0,7.024-4.335,7.024-9.69
			l4.456-82.783C900.432,509.553,902.805,502.822,902.805,495.439z"/>
	</g>
	<g>
		<ellipse fill="#755741" cx="878.082" cy="544.723" rx="1.924" ry="2.024"/>
	</g>
	<g>
		<path fill="#E2D691" d="M887.194,569.426h-17.071c-6.285,0-11.397-5.392-11.397-12.014v-11.243
			c0-6.623,5.112-12.011,11.397-12.011h17.071c6.283,0,11.396,5.388,11.396,12.011v11.243
			C898.59,564.034,893.478,569.426,887.194,569.426z M870.123,536.583c-5.018,0-9.097,4.302-9.097,9.586v11.243
			c0,5.289,4.079,9.591,9.097,9.591h17.071c5.015,0,9.095-4.302,9.095-9.591v-11.243c0-5.284-4.08-9.586-9.095-9.586H870.123z"/>
	</g>
	<g>
		<path fill="#E2D691" d="M894.352,536.297c0,1.428-0.406,2.126-2.608,2.126h-27.036c-1.861,0-2.628-0.518-2.628-1.948v-0.284
			c0-1.567,1.406-2.944,2.628-2.944h27.036C892.55,533.246,894.352,534.672,894.352,536.297L894.352,536.297z"/>
	</g>
	<g>
		<path fill="#E2D691" d="M880.006,544.111c0,0.984-0.861,1.781-1.924,1.781l0,0c-1.062,0-1.924-0.797-1.924-1.781v-11.373
			c0-0.985,0.862-1.781,1.924-1.781l0,0c1.062,0,1.924,0.796,1.924,1.781V544.111z"/>
	</g>
	<g>
		<path fill="#FFF3DC" d="M894.352,574.212c0,0.78-0.528,1.412-1.184,1.412h-30.766c-0.655,0-1.184-0.632-1.184-1.412l0,0
			c0-0.786,0.528-1.414,1.184-1.414h30.766C893.823,572.798,894.352,573.426,894.352,574.212L894.352,574.212z"/>
	</g>
	<g>
		<path fill="#E2D691" d="M880.006,578.448c0,1.123-0.861,2.032-1.924,2.032c-1.062,0-1.924-0.909-1.924-2.032
			c0-1.117,0.862-2.021,1.924-2.021C879.145,576.427,880.006,577.331,880.006,578.448z"/>
	</g>
	<g>
		<path fill="#FFF3DC" d="M880.006,522.624c0,1.118-0.861,2.028-1.924,2.028c-1.062,0-1.924-0.91-1.924-2.028
			c0-1.117,0.862-2.023,1.924-2.023C879.145,520.601,880.006,521.507,880.006,522.624z"/>
	</g>
</g>
<path fill="#FFFFFF" d="M623.405,122.006c0,0,91.153,1.124,102.403,0c11.246-1.125,19.688-9.567,30.939-7.319
	c11.251,2.253,16.312-0.559,16.312-0.559s2.253,7.877,22.507,7.877c20.248,0,22.497-11.797,34.877-10.399
	c12.381,1.398,42.755,10.399,59.631,10.399c16.881,0,76.514,0,76.514,0s12.375-5.625,18.001,0c5.625,5.624,37.128,0,37.128,0
	s33.758-11.392,41.625-4.012c7.886,7.388,20.262-18.496,0-18.496c-20.24,0-20.24,0-20.24,0s-9.1-29.496-38.825-24.19
	c-15.747,2.818-27.567,7.877-27.567,7.877s-2.553-48.079-44.998-41.068c-20.253,3.345-15.842-1.73-21.383-17.435
	c-8.438-23.911-61.976-46.375-86.629,7.311c-9.992,21.734-9.867,11.808-21.254,6.749c-11.386-5.06-26.958-8.001-40.637,19.866
	c-10.128,20.641-23.621-15.367-38.26,10.513c-14.622,25.876-21.372-12.372-39.377,7.876
	c-18.001,20.254-130.756,47.509-130.756,47.509L623.405,122.006z"/>
<g>
	<g>
		<path fill="#23420F" d="M751.263,904.339c0,6.366-6.022,11.526-13.451,11.526H384.036c-7.428,0-13.45-5.16-13.45-11.526V462.965
			c0-6.366,6.021-11.525,13.45-11.525h353.776c7.429,0,13.451,5.159,13.451,11.525V904.339z"/>
	</g>
	<g>
		<rect x="491.223" y="300.89" fill="#D1CFBD" width="13.828" height="150.55"/>
	</g>
	<g>
		<rect x="483.73" y="390.938" fill="#C1BFAE" width="29.964" height="60.502"/>
	</g>
	<g>
		<rect x="603.005" y="294.204" fill="#D1CFBD" width="13.832" height="157.236"/>
	</g>
	<g>
		<rect x="595.515" y="387.481" fill="#C1BFAE" width="29.964" height="63.959"/>
	</g>
	<g>
		<path fill="#2A4F12" d="M709.965,639.028c0,3.075-3.079,5.571-6.872,5.571H415.657c-3.8,0-6.88-2.496-6.88-5.571V518.4
			c0-3.078,3.08-5.572,6.88-5.572h287.436c3.793,0,6.872,2.494,6.872,5.572V639.028z"/>
	</g>
	<g>
		<path fill="#2A4F12" d="M709.965,877.811c0,5.345-3.079,9.682-6.872,9.682H415.657c-3.799,0-6.88-4.337-6.88-9.682V668.16
			c0-5.349,3.081-9.684,6.88-9.684h287.436c3.793,0,6.872,4.335,6.872,9.684V877.811z"/>
	</g>
	<g>
		<g>
			<g>
				<path fill="#050A01" d="M691.657,636.477l1.962,1.685c0.006,0.005,0.087-0.042,0.218-0.134c0.132-0.088,0.317-0.217,0.544-0.369
					c0.244-0.134,0.442-0.371,0.683-0.595c0.258-0.218,0.459-0.488,0.636-0.773l0.286-0.411c0.06-0.146,0.121-0.292,0.176-0.433
					c0.112-0.281,0.252-0.538,0.256-0.776c0.077-0.465,0.121-0.774,0.121-0.774l-2.21-1.451c0,0-0.041,0.295-0.094,0.739
					c0,0.227-0.121,0.472-0.221,0.737c-0.052,0.135-0.103,0.272-0.156,0.41l-0.261,0.391c-0.163,0.269-0.354,0.524-0.588,0.727
					c-0.228,0.21-0.403,0.433-0.641,0.56C691.945,636.29,691.657,636.477,691.657,636.477z"/>
			</g>
			<g>
				<path fill="#050A01" d="M683.098,637.289l1.423,1.83c0,0,1.571-0.01,3.146-0.021c0.786-0.005,1.57-0.01,2.159-0.016
					c0.302,0.009,0.538-0.026,0.704-0.043c0.167-0.016,0.262-0.025,0.262-0.025l-1.816-1.776c0,0-0.096,0.008-0.252,0.02
					c-0.16,0.014-0.387,0.041-0.664,0.032c-0.553,0-1.289,0-2.022,0C684.568,637.289,683.098,637.289,683.098,637.289z"/>
			</g>
			<g>
				<polygon fill="#050A01" points="674.353,637.289 675.152,639.185 681.442,639.141 680.225,637.289 				"/>
			</g>
			<g>
				<polygon fill="#050A01" points="665.595,637.289 665.781,639.249 672.071,639.205 671.472,637.289 				"/>
			</g>
			<g>
				<rect x="656.597" y="637.289" fill="#050A01" width="6.113" height="1.979"/>
			</g>
			<g>
				<rect x="647.493" y="637.289" fill="#050A01" width="6.114" height="1.979"/>
			</g>
			<g>
				<rect x="638.395" y="637.289" fill="#050A01" width="6.109" height="1.979"/>
			</g>
		</g>
		<g>
			<g>
				<rect x="629.29" y="637.289" fill="#050A01" width="6.11" height="1.979"/>
			</g>
			<g>
				<rect x="620.187" y="637.289" fill="#050A01" width="6.11" height="1.979"/>
			</g>
			<g>
				<rect x="611.083" y="637.289" fill="#050A01" width="6.115" height="1.979"/>
			</g>
			<g>
				<rect x="601.978" y="637.289" fill="#050A01" width="6.114" height="1.979"/>
			</g>
			<g>
				<rect x="592.877" y="637.289" fill="#050A01" width="6.112" height="1.979"/>
			</g>
			<g>
				<rect x="583.771" y="637.289" fill="#050A01" width="6.116" height="1.979"/>
			</g>
			<g>
				<rect x="574.673" y="637.289" fill="#050A01" width="6.109" height="1.979"/>
			</g>
		</g>
		<g>
			<g>
				<rect x="565.569" y="637.289" fill="#050A01" width="6.109" height="1.979"/>
			</g>
			<g>
				<rect x="556.465" y="637.289" fill="#050A01" width="6.114" height="1.979"/>
			</g>
			<g>
				<rect x="547.364" y="637.289" fill="#050A01" width="6.112" height="1.979"/>
			</g>
			<g>
				<rect x="538.258" y="637.289" fill="#050A01" width="6.115" height="1.979"/>
			</g>
			<g>
				<rect x="529.159" y="637.289" fill="#050A01" width="6.11" height="1.979"/>
			</g>
			<g>
				<rect x="520.051" y="637.289" fill="#050A01" width="6.115" height="1.979"/>
			</g>
			<g>
				<rect x="510.951" y="637.289" fill="#050A01" width="6.112" height="1.979"/>
			</g>
		</g>
		<g>
			<g>
				<rect x="501.848" y="637.289" fill="#050A01" width="6.112" height="1.979"/>
			</g>
			<g>
				<rect x="492.747" y="637.289" fill="#050A01" width="6.112" height="1.979"/>
			</g>
			<g>
				<rect x="483.645" y="637.289" fill="#050A01" width="6.11" height="1.979"/>
			</g>
			<g>
				<rect x="474.542" y="637.289" fill="#050A01" width="6.109" height="1.979"/>
			</g>
			<g>
				<rect x="465.438" y="637.289" fill="#050A01" width="6.112" height="1.979"/>
			</g>
			<g>
				<rect x="456.335" y="637.289" fill="#050A01" width="6.112" height="1.979"/>
			</g>
			<g>
				<polygon fill="#050A01" points="447.56,637.289 446.984,639.208 453.273,639.25 453.437,637.289 				"/>
			</g>
		</g>
		<g>
			<g>
				<polygon fill="#050A01" points="438.805,637.289 437.611,639.145 443.905,639.188 444.685,637.289 				"/>
			</g>
			<g>
				<path fill="#050A01" d="M430.057,637.261l-1.807,1.784c0,0,0.381,0.053,0.975,0.041c0.587,0.004,1.375,0.009,2.163,0.016
					c1.573,0.011,3.146,0.019,3.146,0.019l1.4-1.831c0,0-1.471,0-2.94,0c-0.734,0-1.469,0-2.018,0
					C430.423,637.302,430.057,637.261,430.057,637.261z"/>
			</g>
			<g>
				<path fill="#050A01" d="M424.446,632.676l-2.202,1.462c0,0,0.044,0.311,0.121,0.777c0.179,0.448,0.393,1.058,0.831,1.593
					c0.41,0.535,0.93,1.027,1.404,1.31c0.435,0.327,0.79,0.465,0.79,0.465l1.949-1.694c0.002,0-0.334-0.129-0.742-0.431
					c-0.446-0.263-0.931-0.728-1.31-1.231c-0.405-0.503-0.592-1.082-0.751-1.51C424.48,632.972,424.446,632.676,424.446,632.676z"/>
			</g>
			<g>
				<polygon fill="#050A01" points="424.415,625.587 422.128,626.553 422.181,631.646 424.415,630.346 				"/>
			</g>
			<g>
				<polygon fill="#050A01" points="424.415,618.496 422.048,618.961 422.101,624.06 424.415,623.256 				"/>
			</g>
			<g>
				<polygon fill="#050A01" points="424.415,611.386 421.972,611.386 422.022,616.465 424.415,616.166 				"/>
			</g>
			<g>
				<rect x="421.972" y="604.013" fill="#050A01" width="2.443" height="4.951"/>
			</g>
		</g>
		<g>
			<g>
				<rect x="421.972" y="596.637" fill="#050A01" width="2.443" height="4.951"/>
			</g>
			<g>
				<rect x="421.972" y="589.264" fill="#050A01" width="2.443" height="4.953"/>
			</g>
			<g>
				<rect x="421.972" y="581.89" fill="#050A01" width="2.443" height="4.952"/>
			</g>
			<g>
				<rect x="421.972" y="574.515" fill="#050A01" width="2.443" height="4.951"/>
			</g>
			<g>
				<rect x="421.972" y="567.141" fill="#050A01" width="2.443" height="4.952"/>
			</g>
			<g>
				<rect x="421.972" y="559.767" fill="#050A01" width="2.443" height="4.952"/>
			</g>
			<g>
				<rect x="421.972" y="552.394" fill="#050A01" width="2.443" height="4.95"/>
			</g>
		</g>
		<g>
			<g>
				<polygon fill="#050A01" points="424.415,545.037 421.977,545.002 421.972,549.97 424.415,549.97 				"/>
			</g>
			<g>
				<polygon fill="#050A01" points="424.415,537.946 422.058,537.413 422.004,542.509 424.415,542.711 				"/>
			</g>
			<g>
				<polygon fill="#050A01" points="424.415,530.858 422.138,529.822 422.083,534.921 424.415,535.617 				"/>
			</g>
			<g>
				<path fill="#050A01" d="M424.625,523.783l-2.165-1.511c-0.082-0.012-0.317,1.222-0.27,2.506
					c-0.012,1.274-0.028,2.548-0.028,2.548l2.252,1.201c0,0,0-1.189,0-2.38C424.374,524.957,424.542,523.769,424.625,523.783z"/>
			</g>
			<g>
				<path fill="#050A01" d="M431.267,520.138l-1.724-1.799c0,0-0.394,0.006-0.985,0.012c-0.575,0.054-1.348,0.109-2.075,0.357
					c-0.383,0.073-0.701,0.272-1.026,0.407c-0.338,0.126-0.593,0.312-0.817,0.467c-0.224,0.156-0.424,0.272-0.537,0.375
					c-0.111,0.106-0.176,0.17-0.176,0.17l2.042,1.627c0,0,0.058-0.058,0.162-0.158c0.105-0.098,0.297-0.205,0.502-0.35
					c0.212-0.145,0.453-0.318,0.77-0.436c0.309-0.12,0.61-0.306,0.971-0.368c0.69-0.223,1.43-0.26,1.979-0.3
					C430.901,520.14,431.267,520.138,431.267,520.138z"/>
			</g>
			<g>
				<polygon fill="#050A01" points="440.024,520.138 438.911,518.274 432.621,518.317 434.145,520.138 				"/>
			</g>
			<g>
				<polygon fill="#050A01" points="448.771,520.138 448.279,518.209 441.989,518.252 442.897,520.138 				"/>
			</g>
		</g>
		<g>
			<g>
				<polygon fill="#050A01" points="457.598,520.138 457.598,518.159 451.358,518.188 451.648,520.138 				"/>
			</g>
			<g>
				<rect x="460.586" y="518.159" fill="#050A01" width="6.114" height="1.979"/>
			</g>
			<g>
				<rect x="469.69" y="518.159" fill="#050A01" width="6.112" height="1.979"/>
			</g>
			<g>
				<rect x="478.794" y="518.159" fill="#050A01" width="6.113" height="1.979"/>
			</g>
			<g>
				<rect x="487.895" y="518.159" fill="#050A01" width="6.113" height="1.979"/>
			</g>
			<g>
				<rect x="497.002" y="518.159" fill="#050A01" width="6.11" height="1.979"/>
			</g>
			<g>
				<rect x="506.101" y="518.159" fill="#050A01" width="6.112" height="1.979"/>
			</g>
		</g>
		<g>
			<g>
				<rect x="515.205" y="518.159" fill="#050A01" width="6.114" height="1.979"/>
			</g>
			<g>
				<rect x="524.307" y="518.159" fill="#050A01" width="6.112" height="1.979"/>
			</g>
			<g>
				<rect x="533.413" y="518.159" fill="#050A01" width="6.109" height="1.979"/>
			</g>
			<g>
				<rect x="542.515" y="518.159" fill="#050A01" width="6.11" height="1.979"/>
			</g>
			<g>
				<rect x="551.613" y="518.159" fill="#050A01" width="6.115" height="1.979"/>
			</g>
			<g>
				<rect x="560.719" y="518.159" fill="#050A01" width="6.114" height="1.979"/>
			</g>
			<g>
				<rect x="569.821" y="518.159" fill="#050A01" width="6.111" height="1.979"/>
			</g>
		</g>
		<g>
			<g>
				<rect x="578.925" y="518.159" fill="#050A01" width="6.112" height="1.979"/>
			</g>
			<g>
				<rect x="588.026" y="518.159" fill="#050A01" width="6.111" height="1.979"/>
			</g>
			<g>
				<rect x="597.13" y="518.159" fill="#050A01" width="6.113" height="1.979"/>
			</g>
			<g>
				<rect x="606.231" y="518.159" fill="#050A01" width="6.112" height="1.979"/>
			</g>
			<g>
				<rect x="615.335" y="518.159" fill="#050A01" width="6.109" height="1.979"/>
			</g>
			<g>
				<rect x="624.44" y="518.159" fill="#050A01" width="6.114" height="1.979"/>
			</g>
			<g>
				<rect x="633.542" y="518.159" fill="#050A01" width="6.11" height="1.979"/>
			</g>
		</g>
		<g>
			<g>
				<rect x="642.647" y="518.159" fill="#050A01" width="6.108" height="1.979"/>
			</g>
			<g>
				<rect x="651.745" y="518.159" fill="#050A01" width="6.114" height="1.979"/>
			</g>
			<g>
				<polygon fill="#050A01" points="666.807,520.138 667.08,518.186 660.849,518.159 660.849,520.138 				"/>
			</g>
			<g>
				<polygon fill="#050A01" points="675.565,520.138 676.45,518.252 670.159,518.208 669.687,520.138 				"/>
			</g>
			<g>
				<polygon fill="#050A01" points="684.311,520.138 685.821,518.314 679.524,518.272 678.437,520.138 				"/>
			</g>
			<g>
				<path fill="#050A01" d="M692.595,521.573l2.028-1.64c0,0-0.297-0.204-0.75-0.51c-0.211-0.171-0.536-0.277-0.852-0.431
					c-0.306-0.164-0.674-0.273-1.046-0.363l-0.552-0.148c-0.187-0.021-0.373-0.04-0.555-0.061c-0.358-0.03-0.689-0.09-0.986-0.076
					c-0.589-0.006-0.981-0.007-0.981-0.007l-1.712,1.8c0,0,0.369,0,0.921,0c0.277-0.011,0.594,0.035,0.934,0.058
					c0.173,0.015,0.349,0.03,0.53,0.047l0.524,0.13c0.356,0.078,0.699,0.177,0.991,0.328c0.297,0.141,0.605,0.237,0.801,0.396
					C692.312,521.385,692.595,521.573,692.595,521.573z"/>
			</g>
			<g>
				<path fill="#050A01" d="M694.329,528.294l2.25-1.216c0,0-0.015-1.274-0.025-2.548c-0.004-0.318-0.008-0.637-0.015-0.937
					c-0.025-0.294-0.081-0.562-0.116-0.797c-0.044-0.469-0.268-0.754-0.237-0.758l-2.15,1.521c-0.028,0.005,0.178,0.272,0.203,0.722
					c0.081,0.442,0.105,1.036,0.09,1.631C694.329,527.104,694.329,528.294,694.329,528.294z"/>
			</g>
		</g>
		<g>
			<g>
				<polygon fill="#050A01" points="694.329,535.385 696.66,534.67 696.605,529.572 694.329,530.626 				"/>
			</g>
			<g>
				<polygon fill="#050A01" points="694.329,542.476 696.741,542.26 696.686,537.164 694.329,537.716 				"/>
			</g>
			<g>
				<polygon fill="#050A01" points="694.329,549.728 696.771,549.728 696.765,544.754 694.329,544.805 				"/>
			</g>
			<g>
				<rect x="694.329" y="552.151" fill="#050A01" width="2.442" height="4.95"/>
			</g>
			<g>
				<rect x="694.329" y="559.524" fill="#050A01" width="2.442" height="4.951"/>
			</g>
			<g>
				<rect x="694.329" y="566.898" fill="#050A01" width="2.442" height="4.952"/>
			</g>
			<g>
				<rect x="694.329" y="574.271" fill="#050A01" width="2.442" height="4.952"/>
			</g>
		</g>
		<g>
			<g>
				<rect x="694.329" y="581.647" fill="#050A01" width="2.442" height="4.951"/>
			</g>
			<g>
				<rect x="694.329" y="589.02" fill="#050A01" width="2.442" height="4.952"/>
			</g>
			<g>
				<rect x="694.329" y="596.395" fill="#050A01" width="2.442" height="4.951"/>
			</g>
			<g>
				<rect x="694.329" y="603.772" fill="#050A01" width="2.442" height="4.949"/>
			</g>
			<g>
				<polygon fill="#050A01" points="694.329,615.933 696.725,616.219 696.771,611.142 694.329,611.142 				"/>
			</g>
			<g>
				<polygon fill="#050A01" points="694.329,623.024 696.645,623.809 696.702,618.714 694.329,618.265 				"/>
			</g>
			<g>
				<polygon fill="#050A01" points="694.329,630.113 696.565,631.398 696.62,626.304 694.329,625.354 				"/>
			</g>
		</g>
	</g>
	<g>
		<g>
			<g>
				<path fill="#050A01" d="M691.657,871.54l1.963,2.88c0.005,0.01,0.086-0.071,0.216-0.229c0.133-0.149,0.318-0.37,0.545-0.631
					c0.244-0.229,0.442-0.635,0.683-1.017c0.258-0.372,0.459-0.834,0.636-1.322l0.286-0.703c0.06-0.251,0.121-0.499,0.176-0.739
					c0.112-0.48,0.252-0.919,0.256-1.328c0.077-0.793,0.121-1.323,0.121-1.323l-2.21-2.481c0,0-0.041,0.505-0.094,1.265
					c0,0.389-0.122,0.807-0.221,1.26c-0.052,0.231-0.103,0.466-0.156,0.701l-0.262,0.67c-0.162,0.457-0.352,0.895-0.588,1.241
					c-0.227,0.359-0.402,0.738-0.64,0.957C691.945,871.222,691.657,871.54,691.657,871.54z"/>
			</g>
			<g>
				<path fill="#050A01" d="M683.098,872.93l1.423,3.129c0,0,1.571-0.016,3.146-0.036c0.786-0.009,1.57-0.018,2.159-0.027
					c0.302,0.015,0.538-0.044,0.704-0.073c0.167-0.028,0.262-0.044,0.262-0.044l-1.815-3.037c0,0-0.097,0.013-0.252,0.032
					c-0.161,0.024-0.388,0.071-0.665,0.057c-0.553,0-1.289,0-2.022,0C684.568,872.93,683.098,872.93,683.098,872.93z"/>
			</g>
			<g>
				<polygon fill="#050A01" points="674.353,872.93 675.152,876.17 681.441,876.094 680.226,872.93 				"/>
			</g>
			<g>
				<polygon fill="#050A01" points="665.595,872.93 665.781,876.279 672.071,876.204 671.473,872.93 				"/>
			</g>
			<g>
				<rect x="656.597" y="872.93" fill="#050A01" width="6.113" height="3.385"/>
			</g>
			<g>
				<rect x="647.493" y="872.93" fill="#050A01" width="6.114" height="3.385"/>
			</g>
			<g>
				<rect x="638.396" y="872.93" fill="#050A01" width="6.109" height="3.385"/>
			</g>
		</g>
		<g>
			<g>
				<rect x="629.29" y="872.93" fill="#050A01" width="6.11" height="3.385"/>
			</g>
			<g>
				<rect x="620.188" y="872.93" fill="#050A01" width="6.109" height="3.385"/>
			</g>
			<g>
				<rect x="611.083" y="872.93" fill="#050A01" width="6.114" height="3.385"/>
			</g>
			<g>
				<rect x="601.978" y="872.93" fill="#050A01" width="6.114" height="3.385"/>
			</g>
			<g>
				<rect x="592.877" y="872.93" fill="#050A01" width="6.112" height="3.385"/>
			</g>
			<g>
				<rect x="583.771" y="872.93" fill="#050A01" width="6.116" height="3.385"/>
			</g>
			<g>
				<rect x="574.673" y="872.93" fill="#050A01" width="6.109" height="3.385"/>
			</g>
		</g>
		<g>
			<g>
				<rect x="565.568" y="872.93" fill="#050A01" width="6.11" height="3.385"/>
			</g>
			<g>
				<rect x="556.465" y="872.93" fill="#050A01" width="6.115" height="3.385"/>
			</g>
			<g>
				<rect x="547.364" y="872.93" fill="#050A01" width="6.112" height="3.385"/>
			</g>
			<g>
				<rect x="538.258" y="872.93" fill="#050A01" width="6.116" height="3.385"/>
			</g>
			<g>
				<rect x="529.159" y="872.93" fill="#050A01" width="6.11" height="3.385"/>
			</g>
			<g>
				<rect x="520.051" y="872.93" fill="#050A01" width="6.114" height="3.385"/>
			</g>
			<g>
				<rect x="510.952" y="872.93" fill="#050A01" width="6.111" height="3.385"/>
			</g>
		</g>
		<g>
			<g>
				<rect x="501.848" y="872.93" fill="#050A01" width="6.112" height="3.385"/>
			</g>
			<g>
				<rect x="492.747" y="872.93" fill="#050A01" width="6.112" height="3.385"/>
			</g>
			<g>
				<rect x="483.646" y="872.93" fill="#050A01" width="6.11" height="3.385"/>
			</g>
			<g>
				<rect x="474.542" y="872.93" fill="#050A01" width="6.109" height="3.385"/>
			</g>
			<g>
				<rect x="465.438" y="872.93" fill="#050A01" width="6.112" height="3.385"/>
			</g>
			<g>
				<rect x="456.334" y="872.93" fill="#050A01" width="6.113" height="3.385"/>
			</g>
			<g>
				<polygon fill="#050A01" points="447.56,872.93 446.984,876.21 453.274,876.282 453.436,872.93 				"/>
			</g>
		</g>
		<g>
			<g>
				<polygon fill="#050A01" points="438.806,872.93 437.611,876.102 443.904,876.176 444.684,872.93 				"/>
			</g>
			<g>
				<path fill="#050A01" d="M430.057,872.881l-1.807,3.05c0,0,0.381,0.09,0.975,0.071c0.587,0.006,1.375,0.016,2.163,0.025
					c1.573,0.019,3.146,0.033,3.146,0.033l1.399-3.131c0,0-1.47,0-2.938,0c-0.735,0-1.47,0-2.019,0
					C430.423,872.951,430.057,872.881,430.057,872.881z"/>
			</g>
			<g>
				<path fill="#050A01" d="M424.446,865.043l-2.202,2.499c0,0,0.044,0.53,0.122,1.329c0.178,0.766,0.393,1.808,0.83,2.724
					c0.41,0.913,0.93,1.755,1.403,2.238c0.436,0.559,0.791,0.795,0.791,0.795l1.949-2.896c0.002,0-0.334-0.22-0.742-0.737
					c-0.446-0.449-0.931-1.243-1.31-2.104c-0.404-0.86-0.592-1.849-0.751-2.581C424.48,865.55,424.446,865.043,424.446,865.043z"/>
			</g>
			<g>
				<polygon fill="#050A01" points="424.415,852.925 422.128,854.575 422.181,863.284 424.415,861.06 				"/>
			</g>
			<g>
				<polygon fill="#050A01" points="424.415,840.803 422.048,841.598 422.101,850.313 424.415,848.939 				"/>
			</g>
			<g>
				<polygon fill="#050A01" points="424.415,828.646 421.973,828.646 422.022,837.33 424.415,836.818 				"/>
			</g>
			<g>
				<rect x="421.973" y="816.041" fill="#050A01" width="2.442" height="8.466"/>
			</g>
		</g>
		<g>
			<g>
				<rect x="421.973" y="803.433" fill="#050A01" width="2.442" height="8.464"/>
			</g>
			<g>
				<rect x="421.973" y="790.828" fill="#050A01" width="2.442" height="8.467"/>
			</g>
			<g>
				<rect x="421.973" y="778.223" fill="#050A01" width="2.442" height="8.464"/>
			</g>
			<g>
				<rect x="421.973" y="765.613" fill="#050A01" width="2.442" height="8.465"/>
			</g>
			<g>
				<rect x="421.973" y="753.008" fill="#050A01" width="2.442" height="8.466"/>
			</g>
			<g>
				<rect x="421.973" y="740.402" fill="#050A01" width="2.442" height="8.464"/>
			</g>
			<g>
				<rect x="421.973" y="727.797" fill="#050A01" width="2.442" height="8.463"/>
			</g>
		</g>
		<g>
			<g>
				<polygon fill="#050A01" points="424.415,715.221 421.977,715.16 421.973,723.653 424.415,723.653 				"/>
			</g>
			<g>
				<polygon fill="#050A01" points="424.415,703.098 422.059,702.188 422.003,710.898 424.415,711.243 				"/>
			</g>
			<g>
				<polygon fill="#050A01" points="424.415,690.981 422.139,689.211 422.083,697.926 424.415,699.117 				"/>
			</g>
			<g>
				<path fill="#050A01" d="M424.625,678.885l-2.164-2.582c-0.082-0.02-0.317,2.089-0.271,4.283
					c-0.011,2.18-0.027,4.356-0.027,4.356l2.252,2.054c0,0,0-2.034,0-4.068C424.374,680.893,424.542,678.86,424.625,678.885z"/>
			</g>
			<g>
				<path fill="#050A01" d="M431.267,672.653l-1.725-3.075c0,0-0.393,0.012-0.985,0.02c-0.576,0.092-1.348,0.188-2.075,0.611
					c-0.383,0.126-0.701,0.468-1.026,0.696c-0.338,0.216-0.593,0.534-0.817,0.798c-0.224,0.267-0.424,0.467-0.537,0.643
					c-0.111,0.181-0.176,0.289-0.176,0.289l2.042,2.781c0,0,0.058-0.097,0.163-0.271c0.104-0.166,0.296-0.349,0.502-0.596
					c0.213-0.248,0.454-0.545,0.77-0.744c0.309-0.207,0.61-0.523,0.971-0.632c0.691-0.381,1.43-0.443,1.979-0.512
					C430.901,672.656,431.267,672.653,431.267,672.653z"/>
			</g>
			<g>
				<polygon fill="#050A01" points="440.025,672.653 438.911,669.469 432.621,669.542 434.145,672.653 				"/>
			</g>
			<g>
				<polygon fill="#050A01" points="448.771,672.653 448.28,669.356 441.989,669.431 442.897,672.653 				"/>
			</g>
		</g>
		<g>
			<g>
				<polygon fill="#050A01" points="457.598,672.653 457.598,669.272 451.358,669.32 451.648,672.653 				"/>
			</g>
			<g>
				<rect x="460.586" y="669.272" fill="#050A01" width="6.114" height="3.381"/>
			</g>
			<g>
				<rect x="469.69" y="669.272" fill="#050A01" width="6.111" height="3.381"/>
			</g>
			<g>
				<rect x="478.794" y="669.272" fill="#050A01" width="6.113" height="3.381"/>
			</g>
			<g>
				<rect x="487.896" y="669.272" fill="#050A01" width="6.112" height="3.381"/>
			</g>
			<g>
				<rect x="497.002" y="669.272" fill="#050A01" width="6.11" height="3.381"/>
			</g>
			<g>
				<rect x="506.1" y="669.272" fill="#050A01" width="6.113" height="3.381"/>
			</g>
		</g>
		<g>
			<g>
				<rect x="515.204" y="669.272" fill="#050A01" width="6.114" height="3.381"/>
			</g>
			<g>
				<rect x="524.308" y="669.272" fill="#050A01" width="6.112" height="3.381"/>
			</g>
			<g>
				<rect x="533.412" y="669.272" fill="#050A01" width="6.109" height="3.381"/>
			</g>
			<g>
				<rect x="542.515" y="669.272" fill="#050A01" width="6.11" height="3.381"/>
			</g>
			<g>
				<rect x="551.613" y="669.272" fill="#050A01" width="6.115" height="3.381"/>
			</g>
			<g>
				<rect x="560.719" y="669.272" fill="#050A01" width="6.114" height="3.381"/>
			</g>
			<g>
				<rect x="569.821" y="669.272" fill="#050A01" width="6.111" height="3.381"/>
			</g>
		</g>
		<g>
			<g>
				<rect x="578.925" y="669.272" fill="#050A01" width="6.113" height="3.381"/>
			</g>
			<g>
				<rect x="588.026" y="669.272" fill="#050A01" width="6.112" height="3.381"/>
			</g>
			<g>
				<rect x="597.13" y="669.272" fill="#050A01" width="6.112" height="3.381"/>
			</g>
			<g>
				<rect x="606.231" y="669.272" fill="#050A01" width="6.112" height="3.381"/>
			</g>
			<g>
				<rect x="615.334" y="669.272" fill="#050A01" width="6.11" height="3.381"/>
			</g>
			<g>
				<rect x="624.44" y="669.272" fill="#050A01" width="6.114" height="3.381"/>
			</g>
			<g>
				<rect x="633.542" y="669.272" fill="#050A01" width="6.111" height="3.381"/>
			</g>
		</g>
		<g>
			<g>
				<rect x="642.647" y="669.272" fill="#050A01" width="6.109" height="3.381"/>
			</g>
			<g>
				<rect x="651.745" y="669.272" fill="#050A01" width="6.114" height="3.381"/>
			</g>
			<g>
				<polygon fill="#050A01" points="666.807,672.653 667.08,669.316 660.849,669.272 660.849,672.653 				"/>
			</g>
			<g>
				<polygon fill="#050A01" points="675.565,672.653 676.45,669.431 670.159,669.354 669.687,672.653 				"/>
			</g>
			<g>
				<polygon fill="#050A01" points="684.311,672.653 685.821,669.537 679.524,669.465 678.437,672.653 				"/>
			</g>
			<g>
				<path fill="#050A01" d="M692.595,675.108l2.028-2.804c0,0-0.297-0.349-0.75-0.871c-0.211-0.292-0.536-0.475-0.851-0.736
					c-0.307-0.28-0.673-0.468-1.047-0.622l-0.552-0.254c-0.186-0.036-0.373-0.068-0.555-0.103c-0.358-0.053-0.689-0.153-0.984-0.129
					c-0.59-0.012-0.983-0.013-0.983-0.013l-1.712,3.076c0,0,0.369,0,0.921,0c0.277-0.019,0.594,0.061,0.934,0.099
					c0.173,0.025,0.35,0.052,0.53,0.079l0.524,0.224c0.356,0.134,0.699,0.302,0.991,0.561c0.297,0.24,0.605,0.405,0.801,0.678
					C692.312,674.786,692.595,675.108,692.595,675.108z"/>
			</g>
			<g>
				<path fill="#050A01" d="M694.329,686.598l2.25-2.078c0,0-0.015-2.18-0.025-4.356c-0.004-0.545-0.008-1.089-0.015-1.601
					c-0.025-0.502-0.081-0.962-0.116-1.362c-0.044-0.802-0.268-1.288-0.237-1.296l-2.15,2.601c-0.029,0.009,0.177,0.468,0.203,1.234
					c0.081,0.755,0.105,1.772,0.09,2.789C694.329,684.564,694.329,686.598,694.329,686.598z"/>
			</g>
		</g>
		<g>
			<g>
				<polygon fill="#050A01" points="694.329,698.719 696.66,697.497 696.604,688.784 694.329,690.583 				"/>
			</g>
			<g>
				<polygon fill="#050A01" points="694.329,710.842 696.741,710.474 696.685,701.762 694.329,702.704 				"/>
			</g>
			<g>
				<polygon fill="#050A01" points="694.329,723.238 696.771,723.238 696.765,714.735 694.329,714.824 				"/>
			</g>
			<g>
				<rect x="694.329" y="727.382" fill="#050A01" width="2.441" height="8.464"/>
			</g>
			<g>
				<rect x="694.329" y="739.987" fill="#050A01" width="2.441" height="8.465"/>
			</g>
			<g>
				<rect x="694.329" y="752.594" fill="#050A01" width="2.441" height="8.466"/>
			</g>
			<g>
				<rect x="694.329" y="765.198" fill="#050A01" width="2.441" height="8.466"/>
			</g>
		</g>
		<g>
			<g>
				<rect x="694.329" y="777.807" fill="#050A01" width="2.441" height="8.466"/>
			</g>
			<g>
				<rect x="694.329" y="790.41" fill="#050A01" width="2.441" height="8.468"/>
			</g>
			<g>
				<rect x="694.329" y="803.019" fill="#050A01" width="2.441" height="8.463"/>
			</g>
			<g>
				<rect x="694.329" y="815.631" fill="#050A01" width="2.441" height="8.462"/>
			</g>
			<g>
				<polygon fill="#050A01" points="694.329,836.42 696.725,836.908 696.771,828.229 694.329,828.229 				"/>
			</g>
			<g>
				<polygon fill="#050A01" points="694.329,848.543 696.645,849.884 696.702,841.174 694.329,840.406 				"/>
			</g>
			<g>
				<polygon fill="#050A01" points="694.329,860.662 696.565,862.859 696.62,854.15 694.329,852.526 				"/>
			</g>
		</g>
	</g>
	<g>
		<path fill="#3A372C" d="M628.4,310.677c0,4.549-5.309,8.235-11.856,8.235H494.471c-6.55,0-11.854-3.687-11.854-8.235v-8.235
			c0-4.55,5.304-8.238,11.854-8.238h122.073c6.547,0,11.856,3.688,11.856,8.238V310.677z"/>
	</g>
	<g>
		<path fill="#3D592C" d="M726.288,464.369c0,1.54-3.163,2.787-7.058,2.787H387.645c-3.901,0-7.061-1.247-7.061-2.787v-1.52
			c0-1.539,3.16-2.785,7.061-2.785H719.23c3.895,0,7.058,1.246,7.058,2.785V464.369z"/>
	</g>
	<g>
		<rect x="487.757" y="394.721" fill="#FFFFFF" width="3.466" height="49.391"/>
	</g>
	<g>
		<rect x="601.274" y="394.721" fill="#FFFFFF" width="3.463" height="49.391"/>
	</g>
	<g>
		<path fill="#636363" d="M593.575,300.27c0-0.958-0.774-1.734-1.734-1.734H489.613c-0.958,0-1.734,0.776-1.734,1.734l0,0
			c0,0.958,0.776,1.734,1.734,1.734h102.228C592.801,302.003,593.575,301.228,593.575,300.27L593.575,300.27z"/>
	</g>
</g>
<g>
	<g>
		<g>
			<g>
				<g>
					<path fill="#A3B7A3" d="M617.445,844.169c0-18.086-13.406-32.757-29.961-32.757h-57.463
						c9.211,18.677,11.947,37.896,10.364,56.956c26.506-1.366,52.513-3.119,77.06-6.902V844.169z"/>
				</g>
			</g>
		</g>
	</g>
	<g>
		<g>
			<g>
				<g>
					<g>
						<path fill="#8DA08D" d="M303.845,922.412c-0.392,1.939-0.779,3.875-1.219,5.846h52.978
							c6.238-12.513,10.926-25.729,13.581-39.115C345.534,896.592,323.458,907.168,303.845,922.412z"/>
					</g>
				</g>
			</g>
		</g>
		<g>
			<g>
				<g>
					<g>
						<path fill="#8DA08D" d="M392.417,882.861c-1.513,15.402-5.039,30.857-9.997,45.396h114.497
							c8.729-18.191,13.604-38.182,14.57-58.483C471.025,871.75,430.226,874.219,392.417,882.861z"/>
					</g>
				</g>
			</g>
		</g>
		<g>
			<g>
				<g>
					<g>
						<g>
							<path fill="#A3B7A3" d="M356.643,811.412h-54.768c7.917,36.196,10.013,70.818,1.97,111
								c19.614-15.244,41.689-25.82,65.339-33.27C374.5,862.527,371.735,835.221,356.643,811.412z"/>
						</g>
					</g>
				</g>
			</g>
			<g>
				<g>
					<g>
						<g>
							<path fill="#869786" d="M301.875,811.412c-16.547,0-29.951,16.35-29.951,32.757v51.33c0,18.085,13.404,32.759,29.951,32.759
								h0.751c7.167-14.892,9.316-41.964,8.995-63.24C311.057,828.687,301.875,811.412,301.875,811.412z"/>
						</g>
					</g>
				</g>
			</g>
			<g>
				<g>
					<g>
						<g>
							<path fill="#3A372C" d="M380.664,811.412h-24.021c15.092,23.809,17.856,51.115,12.541,77.73
								c7.599-2.391,15.357-4.482,23.233-6.281C394.945,857.382,391.928,832.068,380.664,811.412z"/>
						</g>
					</g>
				</g>
			</g>
			<g>
				<g>
					<g>
						<g>
							<path fill="#2B2820" d="M369.362,888.826c-2.658,13.393-7.333,26.617-13.575,39.124h26.816
								c4.958-14.548,8.488-30.005,10.009-45.398C384.72,884.356,376.97,886.436,369.362,888.826z"/>
						</g>
					</g>
				</g>
			</g>
			<g>
				<g>
					<g>
						<g>
							<path fill="#A3B7A3" d="M503.208,811.412H380.664c11.265,20.656,14.282,45.97,11.754,71.449
								c37.809-8.643,78.608-11.111,119.07-13.087C512.422,850.17,509.714,830.281,503.208,811.412z"/>
						</g>
					</g>
				</g>
			</g>
			<g>
				<g>
					<g>
						<g>
							<path fill="#3A372C" d="M530.021,811.412h-26.813c6.506,18.869,9.214,38.758,8.28,58.362
								c9.666-0.471,19.316-0.917,28.897-1.406C541.968,849.308,539.232,830.089,530.021,811.412z"/>
						</g>
					</g>
				</g>
			</g>
			<g>
				<g>
					<g>
						<g>
							<path fill="#2B2820" d="M511.488,869.774c-0.966,20.302-5.841,40.292-14.57,58.483h25.88
								c9.197-19.172,15.892-39.432,17.588-59.89C530.804,868.857,521.154,869.304,511.488,869.774z"/>
						</g>
					</g>
				</g>
			</g>
			<g>
				<g>
					<g>
						<g>
							<path fill="#8DA08D" d="M540.385,868.368c-1.696,20.458-8.391,40.718-17.588,59.89h64.687
								c16.555,0,29.961-14.674,29.961-32.759v-34.033C592.898,865.249,566.892,867.002,540.385,868.368z"/>
						</g>
					</g>
				</g>
			</g>
			<g>
				<g>
					<g>
						<g>
							<path fill="#5B685C" d="M289.502,912.097c-0.456,0-0.92-0.071-1.377-0.21c-6.5-1.949-9.626-17.214-9.956-18.953
								c-4.875-25.3-0.791-49.646,5.977-53.709c2.536-1.522,4.958-1.77,6.992-0.684c3.978,2.105,6.328,9.184,6.992,21.011
								c1.431,25.82-4.203,31.648-9.182,31.985c-1.161,0.098-2.869-0.35-4.288-2.871c-4.179-7.437-3.469-29.131,1.182-35.714
								c1.35-1.916,2.74-2.133,3.703-1.958c3.244,0.555,3.758,7.606,3.995,14.796c0.025,0.965,0.062,1.743,0.098,2.22l-1.493,0.137
								c-0.053-0.489-0.068-1.3-0.1-2.309c-0.124-3.555-0.442-12.974-2.757-13.376c-0.286-0.036-1.146-0.18-2.218,1.341
								c-4.33,6.136-5.006,27.197-1.104,34.127c0.836,1.484,1.803,2.17,2.87,2.121c2.846-0.191,9.291-3.553,7.803-30.42
								c-0.774-14.038-3.798-18.502-6.197-19.777c-1.573-0.82-3.428-0.607-5.528,0.655c-5.475,3.281-10.367,25.749-5.267,52.142
								c1.071,5.559,4.314,16.428,8.901,17.8c1.528,0.456,3.093-0.181,4.814-1.941c6.266-6.503,14.134-54.609,2.164-72.086
								c-2.254-3.267-7.529-8.802-11.483-6.409l-0.782-1.27c4.9-3.003,10.787,2.882,13.494,6.829
								c12.394,18.081,4.656,66.74-2.328,73.971C292.78,911.236,291.129,912.097,289.502,912.097z"/>
						</g>
					</g>
				</g>
			</g>
		</g>
	</g>
</g>
<g>
	<g>
		<path fill="#1D2D5B" d="M1102.526,440.792c-32.322,0-58.526,23.425-58.526,52.324c0,28.903,26.204,52.328,58.526,52.328
			s58.525-23.425,58.525-52.328C1161.052,464.216,1134.849,440.792,1102.526,440.792z M1102.113,537.709
			c-27.049,0-48.981-19.604-48.981-43.789c0-24.181,21.933-43.79,48.981-43.79s48.976,19.609,48.976,43.79
			C1151.089,518.104,1129.162,537.709,1102.113,537.709z"/>
	</g>
	<path fill="#1D2D5B" d="M1247,672.134V530.618c0-17.051-17.572-30.618-39.393-30.618h-64.716c-0.005,0-0.01,0-0.016,0h-141.587
		c-0.004,0-0.007,0-0.011,0h-8.281C971.191,500,953,513.567,953,530.618v157.451c0,15.174,14.273,27.776,32.74,30.368
		c-2.143-6.077-3.91-12.226-5.387-18.434c1.648,6.282,3.519,12.471,5.629,18.452c2.278,0.317,4.617,0.544,7.015,0.544h214.61
		c21.82,0,39.393-13.882,39.393-30.931v-14.507C1247,673.084,1247,672.611,1247,672.134z"/>
	<g>
		<g>
			<g>
				<g>
					<path fill="#080D21" d="M992.997,694.979c-0.474,0-0.913,0.035-1.382,0.046c-3.039,5.731-5.773,11.609-8.247,17.603
						c29.694-21.938,70.475-14.904,106.057-17.648H992.997z"/>
				</g>
			</g>
		</g>
	</g>
	<g>
		<g>
			<g>
				<g>
					<path fill="#080D21" d="M1166.358,922.658h41.249c12.964,0,24.444-5.091,31.652-12.935
						c-2.201-16.354-6.295-32.292-12.397-47.254C1210.481,885.233,1188.818,904.392,1166.358,922.658z"/>
				</g>
			</g>
		</g>
	</g>
	<path fill="#141E42" d="M1207.75,695.297l-216.316-0.232C970.27,695.668,953,709.709,953,727.033v163.553
		c0,17.28,17.085,31.492,38.159,32.188c0.533,0.012,1.3,0.227,1.838,0.227h173.361c22.46-18,43.925-37.596,60.306-60.361
		c2.432-3.381,4.787-6.843,7.015-10.418c-2.157,3.488-4.424,6.912-6.816,10.239c6.103,14.962,10.141,30.904,12.342,47.259
		c4.904-5.338,7.796-11.939,7.796-19.133v-65.863c-1,5.368-3.999,10.531-6.509,15.522c2.484-5.007,4.509-10.181,6.509-15.522V733.81
		v-6.776C1247,709.331,1229.57,695.297,1207.75,695.297z"/>
	<g>
		<g>
			<g>
				<g>
					<path fill="#894010" d="M1119.479,822.229V689.613c-5.629-8.311-13.004-14.351-20.599-9.086V811.2
						C1105.508,818.069,1112.202,822.972,1119.479,822.229z"/>
				</g>
			</g>
		</g>
	</g>
	<path fill="#AD622F" d="M1219,693.724c0,13.079-10.312,23.276-22.599,23.276h-179.079C1005.035,717,995,706.803,995,693.724
		V514.946c0-13.079,10.035-23.946,22.322-23.946h179.079c12.287,0,22.599,10.867,22.599,23.946V693.724z"/>
	<path fill="#AD622F" d="M1209.928,797h-32.941h-167.332c-13.56,0-24.857,7.955-28.547,18.834c-0.808,2.393-1.107,4.925-1.107,7.539
		v72.794c0,14.552,13.103,25.833,29.654,25.833h45.768h154.506c13.343,0,24.693-7.43,28.574-18.035
		c0.927-2.535,1.498-4.975,1.498-7.798v-72.794C1240,808.813,1226.475,797,1209.928,797z"/>
</g>
<g>
	<g>
		<g>
			<g>
				<path fill="#543D0E" d="M778.263,587.207c0-6.764,8.072-12.242,18.036-12.242h108.158c9.956,0,18.029,5.479,18.029,12.242
					v22.266h18.025v-27.571c0-12.446-10.087-22.537-22.533-22.537H782.776c-12.446,0-22.533,10.091-22.533,22.537v27.571h18.02
					V587.207z"/>
			</g>
		</g>
	</g>
	<g>
		<g>
			<g>
				<path fill="#442F0B" d="M897.699,830.408c-49.576,10.518-97.651,22.537-147.227,22.537c-47.368,0-101.656,6.91-147.714-5.503
					v72.817c0,10.674,9.285,19.325,20.75,19.325h454.244c11.461,0,20.749-8.651,20.749-19.325V761.465
					c-45.403,21.605-90.841,36.309-137.708,52.419C939.765,821.396,918.729,824.396,897.699,830.408z"/>
			</g>
		</g>
		<g>
			<g>
				<path fill="#543D0E" d="M1077.752,607.473h-137.24h-18.025H778.263h-18.02H623.508c-11.464,0-20.75,8.65-20.75,19.324v220.646
					c46.058,12.413,100.346,5.503,147.714,5.503c49.575,0,97.65-12.02,147.227-22.537c21.029-6.012,42.065-9.013,63.094-16.524
					c46.867-16.11,92.305-30.813,137.708-52.419V626.797C1098.501,616.123,1089.213,607.473,1077.752,607.473z"/>
			</g>
		</g>
	</g>
	<g>
		<g>
			<g>
				<rect x="682.871" y="607.473" fill="#442F0B" width="30.541" height="332.112"/>
			</g>
		</g>
	</g>
	<g>
		<g>
			<g>
				<rect x="981.323" y="607.473" fill="#442F0B" width="30.552" height="332.112"/>
			</g>
		</g>
	</g>
	<g>
		<g>
			<g>
				<polygon fill="#59022F" points="695.383,746.781 695.383,746.781 695.383,746.781 695.383,746.781 695.383,746.279 
					695.383,746.279 695.383,746.279 695.383,746.279 				"/>
			</g>
		</g>
	</g>
	<g>
		<g>
			<g>
				<path fill="#AF905A" d="M713.661,782.754h-31.045c-5.992,0-10.521-3.198-10.521-7.439v-36.618c0-4.241,4.53-7.443,10.521-7.443
					h31.045c5.994,0,10.517,3.202,10.517,7.443v36.618C724.178,779.556,719.655,782.754,713.661,782.754z M682.616,737.266
					c-2.748,0-4.345,1.086-4.521,1.523l0.009,36.525c0.167,0.339,1.764,1.43,4.512,1.43h31.045c2.741,0,4.348-1.091,4.522-1.524
					l-0.017-36.523c-0.158-0.345-1.765-1.431-4.506-1.431H682.616z"/>
			</g>
		</g>
	</g>
	<g>
		<g>
			<g>
				<path fill="#AF905A" d="M1012.128,782.754h-31.057c-5.993,0-10.514-3.198-10.514-7.439v-36.618
					c0-4.241,4.521-7.443,10.514-7.443h31.057c5.992,0,10.511,3.202,10.511,7.443v36.618
					C1022.639,779.556,1018.12,782.754,1012.128,782.754z M981.071,737.266c-2.739,0-4.342,1.086-4.521,1.523l0.017,36.525
					c0.163,0.339,1.766,1.43,4.505,1.43h31.057c2.741,0,4.342-1.091,4.519-1.524l-0.017-36.523c-0.16-0.345-1.761-1.431-4.502-1.431
					H981.071z"/>
			</g>
		</g>
	</g>
	<g>
		<g>
			<g>
				<rect x="753.975" y="597.554" fill="#442F0B" width="32.055" height="10.419"/>
			</g>
		</g>
	</g>
	<g>
		<g>
			<g>
				<rect x="915.223" y="597.049" fill="#442F0B" width="32.055" height="10.424"/>
			</g>
		</g>
	</g>
	<g opacity="0.5">
		<g>
			<path fill="#AF905A" d="M1074.973,623.091c0,3.318-2.694,6.009-6.005,6.009H628.783c-3.314,0-6.009-2.69-6.009-6.009l0,0
				c0-3.318,2.695-6.009,6.009-6.009h440.185C1072.278,617.082,1074.973,619.772,1074.973,623.091L1074.973,623.091z"/>
		</g>
	</g>
</g>
<path fill="#FFFFFF" d="M86.92,199.492c0,0,108.528,1.338,121.93,0c13.386-1.337,23.437-11.388,36.833-8.711
	c13.398,2.681,19.427-0.667,19.427-0.667s2.68,9.378,26.792,9.378c24.111,0,26.792-14.045,41.526-12.381
	c14.743,1.665,50.908,12.381,70.999,12.381c20.1,0,91.101,0,91.101,0s14.741-6.696,21.432,0c6.704,6.696,44.21,0,44.21,0
	s40.195-13.564,49.565-4.775c9.381,8.796,24.122-22.023,0-22.023c-24.108,0-24.108,0-24.108,0s-10.833-35.117-46.219-28.797
	c-18.756,3.354-32.824,9.377-32.824,9.377s-3.04-57.246-53.583-48.897c-24.114,3.983-18.854-2.061-25.453-20.764
	c-10.054-28.464-73.79-55.21-103.15,8.709c-11.889,25.876-11.75,14.058-25.299,8.034c-13.557-6.023-32.1-9.528-48.388,23.654
	c-12.057,24.578-28.126-18.295-45.551,12.517c-17.41,30.811-25.45-14.732-46.888,9.379C137.84,170.02,3.588,202.469,3.588,202.469
	L86.92,199.492z"/>
<g>
	<g>
		<g>
			<g>
				<path fill="#575345" d="M705.305,195.822v131.869c0,3.696,2.909,6.69,6.557,6.882V188.94
					C708.214,189.13,705.305,192.121,705.305,195.822z"/>
			</g>
		</g>
		<g>
			<g>
				<path fill="#4D483A" d="M712.223,188.904c-0.123,0-0.237,0.029-0.361,0.036v145.632c0.124,0.007,0.238,0.036,0.361,0.036
					c3.815,0,6.913-3.097,6.913-6.917V195.822C719.136,191.997,716.038,188.904,712.223,188.904z"/>
			</g>
		</g>
	</g>
	<g>
		<g>
			<g>
				<path fill="#E0B814" d="M714.723,192.127c0,0,0,52.943,0,59.021c0-2.98,4.367-6.11,10.051-8.783v-55.677
					C718.778,189.233,714.723,192.127,714.723,192.127z"/>
			</g>
		</g>
		<g>
			<g>
				<path fill="#FFD41D" d="M741.467,182.908c-6.082,0-11.982,1.782-16.693,3.781v55.677c8.395-3.945,19.67-6.894,24.069-6.894
					c4.665,0,10.806-1.838,17.954,1.262v-44.838C758.417,186.908,749.775,182.908,741.467,182.908z"/>
			</g>
		</g>
		<g>
			<g>
				<path fill="#FFE269" d="M832.058,248.384c-12.693,1.843-22.352-20.288-22.352-20.288s24.902-21.213,22.134-20.289
					c-2.764,0.922-35.963,2.763-48.875-5.537c-5.154-3.313-10.605-7.058-16.168-10.374v44.838
					c4.157,1.804,8.653,5.272,13.405,11.759C793.109,266.126,844.75,246.538,832.058,248.384z"/>
			</g>
		</g>
	</g>
	<g>
		<g>
			<g>
				<path fill="#575345" d="M753.485,299.272c0-4.061,3.126-7.396,7.104-7.731v-17.052c-10.682,0.378-19.234,9.816-19.234,21.434
					c0,10.572,15.809,38.446,19.234,44.36v-33.279C756.611,306.668,753.485,303.335,753.485,299.272z"/>
			</g>
		</g>
		<g>
			<g>
				<path fill="#4D483A" d="M781.143,295.922c0-11.858-8.906-21.469-19.893-21.469c-0.225,0-0.438,0.029-0.66,0.036v17.052
					c0.219-0.018,0.436-0.031,0.66-0.031c4.285,0,7.762,3.475,7.762,7.762s-3.477,7.764-7.762,7.764
					c-0.225,0-0.441-0.015-0.66-0.033v33.279c0.413,0.718,0.66,1.131,0.66,1.131S781.143,307.776,781.143,295.922z"/>
			</g>
		</g>
	</g>
</g>
<g>
	<g>
		<g>
			<g>
				<path fill="#16395C" d="M1117.038,52.914c-15.091,0-27.314,12.224-27.314,27.308c0,15.089,12.224,27.316,27.314,27.316
					c15.081,0,27.297-12.227,27.297-27.316C1144.335,65.138,1132.119,52.914,1117.038,52.914z M1124.966,101.335
					c12.014-9.087,9.889-33.32,9.889-33.32l4.456,5.828C1144.335,87.003,1124.966,101.335,1124.966,101.335z"/>
			</g>
		</g>
	</g>
	<g>
		<g>
			<g>
				<path fill="#16395C" d="M1089.674,92.138l-43.39,69.733l59.668-52.677c0,0-2.474,0.124-10.326-7.559
					C1089.56,95.672,1089.674,92.138,1089.674,92.138z"/>
			</g>
		</g>
	</g>
</g>
<g>
	<g>
		<g>
			<g>
				<path fill="#F7F2E4" d="M1239.269,263.938c-43.639,0-79.008,35.371-79.008,79.004c0,43.63,35.369,79.008,79.008,79.008
					c0.552,0,1.085-0.028,1.635-0.042V263.978C1240.354,263.964,1239.82,263.938,1239.269,263.938z"/>
			</g>
		</g>
		<g>
			<g>
				<path fill="#D3CFC8" d="M1318.273,342.942c0-43.087-34.489-78.09-77.37-78.964v157.929
					C1283.784,421.036,1318.273,386.021,1318.273,342.942z"/>
			</g>
		</g>
	</g>
	<g>
		<g>
			<g>
				<g>
					<path fill="#4D483A" d="M1235.536,396.38v20.067c-16.481-1.048-31.46-7.498-43.2-17.653l9.84-9.838l-3.189-3.192l-9.994,9.991
						c-12.315-12.074-20.367-28.442-21.771-46.696h17.567v-10.187h-17.629c1.036-16.908,7.761-32.234,18.343-44.124l10.979,7.63
						l2.562-3.697l-10.467-7.285c12.206-12.131,28.68-19.918,46.96-21.076v21.193h5.367v-33.058c-0.227,0-0.438-0.014-0.665-0.014
						c-46.924,0-84.946,38.023-84.946,84.939c0,46.919,38.022,84.943,84.946,84.943c0.228,0,0.438-0.014,0.665-0.014V396.38
						H1235.536z"/>
				</g>
			</g>
			<g>
				<g>
					<path fill="#333027" d="M1325.184,343.382c0-46.693-37.668-84.563-84.28-84.925v33.058h3.646v-21.219
						c18.276,1.071,34.755,8.76,47.013,20.794l-10.037,7.654l2.738,3.582l10.397-7.925c10.756,11.941,17.613,27.399,18.654,44.472
						h-18.577v10.187h18.519c-1.383,18.016-9.226,34.222-21.283,46.242l-9.241-12.244l-3.599,2.717l9.488,12.582
						c-11.904,10.478-27.203,17.127-44.072,18.113V396.38h-3.646v31.931C1287.516,427.952,1325.184,390.079,1325.184,343.382z"/>
				</g>
			</g>
		</g>
	</g>
	<g>
		<g>
			<g>
				<g>
					<path fill="#88BDE3" d="M1239.515,350.13c-2.775,0-5.04-2.255-5.04-5.041c0-0.77,0.187-1.492,0.501-2.147l-4.409-4.407
						c-0.406,0.645-0.812,1.3-1.193,1.97c-9.701,16.697-10.271,33.859-8.287,35.609c1.667,1.472,11.13-4.325,19.817-14.854v-11.347
						C1240.466,350.048,1240,350.13,1239.515,350.13z"/>
				</g>
			</g>
			<g>
				<g>
					<path fill="#7AADCD" d="M1241.662,349.63c-0.236,0.12-0.494,0.213-0.759,0.284v11.347c1.806-2.184,3.582-4.569,5.243-7.141
						L1241.662,349.63z"/>
				</g>
			</g>
		</g>
		<g>
			<g>
				<g>
					<path fill="#CC5752" d="M1256.186,315.653c-1.046-0.859-7.925,2.833-15.282,10.076v14.538c2.104,0.608,3.646,2.52,3.646,4.822
						c0,2.013-1.18,3.741-2.887,4.541l4.484,4.49c0.598-0.931,1.188-1.881,1.75-2.854
						C1257.598,334.57,1258.208,317.304,1256.186,315.653z"/>
				</g>
			</g>
			<g>
				<g>
					<path fill="#EA7063" d="M1230.566,338.535l4.409,4.407c0.808-1.705,2.525-2.89,4.539-2.89c0.485,0,0.942,0.089,1.389,0.215
						v-14.538C1237.369,329.216,1233.725,333.512,1230.566,338.535z"/>
				</g>
			</g>
		</g>
	</g>
	<g>
		<g>
			<g>
				<path fill="#4D483A" d="M1237.231,296.757h-1.904v13.51h1.649v-5.771c0-2.248-0.049-3.87-0.146-5.576l0.06-0.02
					c0.687,1.464,1.579,3.007,2.527,4.513l1.485,2.374v-3.235L1237.231,296.757z"/>
			</g>
		</g>
		<g>
			<g>
				<path fill="#4D483A" d="M1243.824,296.757v5.648c0,2.108,0.043,3.752,0.203,5.558l-0.041,0.017
					c-0.639-1.384-1.423-2.804-2.431-4.391l-0.652-1.037v3.235l2.803,4.479h1.763v-13.51H1243.824z"/>
			</g>
		</g>
	</g>
	<g>
		<g>
			<g>
				<path fill="#3D392E" d="M1288.132,344.738h-5.248v4.87h5.851v1.464h-7.595v-13.505h7.296v1.458h-5.552v4.271h5.248V344.738z"/>
			</g>
		</g>
	</g>
	<g>
		<g>
			<g>
				<path fill="#4D483A" d="M1239.631,389.207c-1.206,0-2.343-0.403-3.128-0.886l-0.439,1.468c0.719,0.483,2.14,0.857,3.445,0.857
					c0.511,0,0.969-0.058,1.395-0.143v-1.498C1240.539,389.129,1240.112,389.207,1239.631,389.207z"/>
			</g>
		</g>
		<g>
			<g>
				<path fill="#4D483A" d="M1244.238,386.764c0-1.953-1.123-3.049-3.335-3.925v1.828c1.091,0.575,1.552,1.235,1.552,2.236
					c0,0.992-0.554,1.758-1.552,2.103v1.498C1243.141,390.048,1244.238,388.508,1244.238,386.764z"/>
			</g>
		</g>
		<g>
			<g>
				<path fill="#4D483A" d="M1243.221,378.804l0.477-1.421c-0.568-0.328-1.513-0.629-2.794-0.654v1.453
					C1241.992,378.234,1242.809,378.581,1243.221,378.804z"/>
			</g>
		</g>
		<g>
			<g>
				<path fill="#4D483A" d="M1240.796,382.794c-1.869-0.724-2.689-1.343-2.689-2.609c0-0.918,0.702-2.026,2.549-2.026
					c0.086,0,0.163,0.019,0.248,0.023v-1.453c-0.068,0-0.123-0.009-0.188-0.009c-2.629,0-4.373,1.563-4.373,3.671
					c0,1.899,1.366,3.039,3.571,3.827c0.382,0.146,0.704,0.295,0.99,0.449v-1.828
					C1240.864,382.822,1240.835,382.809,1240.796,382.794z"/>
			</g>
		</g>
	</g>
	<g>
		<g>
			<g>
				<path fill="#4D483A" d="M1193.856,351.073l-3.432-13.505h1.849l1.604,6.833c0.396,1.681,0.761,3.365,0.996,4.668h0.044
					c0.222-1.343,0.639-2.942,1.101-4.691l1.807-6.81h1.823l1.642,6.854c0.386,1.601,0.742,3.205,0.945,4.627h0.038
					c0.279-1.48,0.665-2.987,1.083-4.67l1.785-6.81h1.782l-3.833,13.505h-1.824l-1.697-7.035c-0.421-1.725-0.702-3.047-0.882-4.408
					h-0.039c-0.239,1.341-0.545,2.668-1.042,4.408l-1.923,7.035H1193.856z"/>
			</g>
		</g>
	</g>
</g>
<g>
	<g opacity="0.4">
		<g>
			<g>
				<g>
					<path fill="#8C877C" d="M194.726,358.338c-18.31,9.71-25.609,32.052-16.872,50.603l-8.411,4.457
						c-1.925-1.309-4.482-1.684-6.553-0.587l-75.906,38.003c-3.025,1.609-4.178,5.357-2.574,8.38l2.376,4.477
						c1.602,3.027,5.354,4.18,8.383,2.576l74.482-41.84c2.499-1.327,3.317-4.218,2.628-6.891l7.979-4.231
						c10.719,16.836,32.757,22.879,50.7,13.36c18.855-10,26.041-33.403,16.035-52.266
						C236.989,355.519,213.589,348.34,194.726,358.338z"/>
				</g>
			</g>
		</g>
	</g>
	<g>
		<g>
			<g>
				<g>
					<path fill="#2A0C0B" d="M190.898,354.167c-18.864,10.002-26.045,33.406-16.041,52.263
						c10.001,18.867,33.405,26.049,52.265,16.044c18.865-10.007,26.045-33.403,16.042-52.267
						C233.165,351.345,209.761,344.166,190.898,354.167z M224.896,418.278c-16.543,8.774-37.066,2.472-45.841-14.071
						c-8.769-16.54-2.472-37.069,14.07-45.844c16.541-8.77,37.068-2.469,45.84,14.073
						C247.738,388.977,241.437,409.507,224.896,418.278z"/>
				</g>
			</g>
		</g>
	</g>
	<g>
		<g>
			<g>
				<g>
					<path fill="#F0F1C9" d="M192.737,357.638c-16.539,8.771-22.843,29.297-14.068,45.839c8.773,16.542,29.295,22.841,45.842,14.07
						c16.541-8.771,22.841-29.299,14.068-45.837C229.799,355.161,209.282,348.867,192.737,357.638z"/>
				</g>
			</g>
		</g>
	</g>
	<g>
		<g>
			<g>
				<g>
					<path fill="#FFFEEE" d="M192.544,357.272c-0.55,0.29-1.09,0.603-1.614,0.918c16.229-7.513,35.69-1.094,44.165,14.894
						c8.479,15.991,2.877,35.7-12.448,44.919c0.559-0.258,1.115-0.532,1.669-0.822c16.541-8.778,22.842-29.3,14.068-45.842
						C229.615,354.8,209.085,348.502,192.544,357.272z"/>
				</g>
			</g>
		</g>
	</g>
	<g>
		<g>
			<g>
				<g>
					<polygon fill="#2A0C0B" points="178.134,408.206 167.542,413.824 165.222,409.44 175.811,403.823 					"/>
				</g>
			</g>
		</g>
	</g>
	<g>
		<g>
			<g>
				<g>
					<path fill="#2A0C0B" d="M167.818,411.693c1.604,3.022,1.03,6.936-1.995,8.543L91.34,462.074
						c-3.026,1.608-6.781,0.455-8.381-2.572l-2.372-4.477c-1.612-3.024-0.457-6.779,2.567-8.38l75.903-38.003
						c3.027-1.604,7.104-0.066,8.711,2.957L167.818,411.693z"/>
				</g>
			</g>
		</g>
	</g>
</g>
<g opacity="0.4">
	<g>
		<g>
			<path fill="#272525" d="M1041.088,86.109l3.599-1.271c0,0-0.203-0.588-0.51-1.472c-0.284-0.894-0.756-2.042-1.231-3.197
				c-0.938-2.312-1.876-4.618-1.876-4.618l-3.492,1.529c0,0,0.906,2.244,1.819,4.489c0.462,1.12,0.92,2.243,1.195,3.11
				C1040.893,85.542,1041.088,86.109,1041.088,86.109z"/>
		</g>
		<g>
			<path fill="#272525" d="M1045.201,99.958l3.708-0.904c0,0-0.145-0.608-0.363-1.515c-0.194-0.915-0.523-2.111-0.888-3.305
				c-0.698-2.394-1.393-4.78-1.393-4.78l-3.636,1.148c0,0,0.676,2.324,1.353,4.661c0.354,1.156,0.678,2.325,0.863,3.219
				C1045.061,99.366,1045.201,99.958,1045.201,99.958z"/>
		</g>
		<g>
			<path fill="#272525" d="M1047.934,114.144l3.779-0.539c0,0-0.086-0.617-0.215-1.536c-0.104-0.932-0.329-2.155-0.562-3.377
				c-0.458-2.446-0.919-4.891-0.919-4.891l-3.733,0.778c0,0,0.446,2.386,0.894,4.77c0.226,1.197,0.452,2.391,0.553,3.293
				C1047.851,113.546,1047.934,114.144,1047.934,114.144z"/>
		</g>
		<g>
			<path fill="#272525" d="M1049.298,128.536l3.81-0.176c0,0-0.043-2.488-0.31-4.964c-0.213-2.479-0.433-4.96-0.433-4.96
				l-3.791,0.424c0,0,0.206,2.422,0.422,4.836C1049.26,126.11,1049.298,128.536,1049.298,128.536z"/>
		</g>
		<g>
			<path fill="#272525" d="M1049.271,142.993l3.813,0.19c0,0,0.184-2.481,0.163-4.975c0.028-2.492,0.05-4.976,0.05-4.976
				l-3.817,0.054c0,0-0.021,2.43-0.044,4.849C1049.451,140.571,1049.271,142.993,1049.271,142.993z"/>
		</g>
		<g>
			<path fill="#272525" d="M1047.808,157.358l3.771,0.586c0,0,0.106-0.614,0.263-1.534c0.106-0.933,0.253-2.166,0.396-3.404
				c0.146-1.237,0.285-2.476,0.394-3.403c0.125-0.926,0.144-1.546,0.144-1.546l-3.801-0.326c0,0-0.023,0.611-0.139,1.507
				c-0.106,0.905-0.247,2.112-0.389,3.314c-0.139,1.207-0.276,2.411-0.385,3.313
				C1047.907,156.765,1047.808,157.358,1047.808,157.358z"/>
		</g>
		<g>
			<path fill="#272525" d="M1044.838,171.475l3.688,0.994c0,0,0.2-0.594,0.409-1.503c0.211-0.912,0.49-2.124,0.771-3.341
				c0.277-1.214,0.555-2.433,0.765-3.344c0.197-0.915,0.288-1.528,0.288-1.528l-3.751-0.717c0,0-0.085,0.598-0.274,1.492
				c-0.204,0.881-0.478,2.061-0.75,3.242c-0.272,1.179-0.542,2.365-0.744,3.249C1045.035,170.901,1044.838,171.475,1044.838,171.475
				z"/>
		</g>
	</g>
	<g>
		<g>
			<path fill="#272525" d="M1040.317,185.107l3.505,1.507c0,0,0.271-0.578,0.574-1.472c0.318-0.888,0.748-2.069,1.174-3.259
				c0.413-1.172,0.837-2.351,1.146-3.228c0.263-0.899,0.438-1.498,0.438-1.498l-3.642-1.133c0,0-0.167,0.585-0.424,1.459
				c-0.308,0.852-0.711,1.99-1.12,3.134c-0.404,1.127-0.81,2.26-1.113,3.102C1040.569,184.573,1040.317,185.107,1040.317,185.107z"
				/>
		</g>
		<g>
			<path fill="#272525" d="M1033.039,197.014l2.934,2.436c0,0,1.71-1.89,3.278-3.901c0.387-0.506,0.788-1.004,1.123-1.498
				c0.352-0.48,0.681-0.938,0.833-1.392c0.38-0.878,0.631-1.461,0.631-1.461l-3.354-1.841c0,0-0.233,0.542-0.583,1.355
				c-0.312,0.838-1.119,1.737-1.818,2.679C1034.625,195.258,1033.039,197.014,1033.039,197.014z"/>
		</g>
		<g>
			<path fill="#272525" d="M1022.9,207.208l2.576,2.81c0,0,1.838-1.677,3.619-3.408c1.783-1.736,3.511-3.534,3.511-3.534
				l-2.748-2.648c0,0-1.682,1.751-3.423,3.446C1024.696,205.572,1022.9,207.208,1022.9,207.208z"/>
		</g>
		<g>
			<path fill="#272525" d="M1011.804,216.476l2.292,3.048c0,0,0.497-0.385,1.241-0.952c0.744-0.56,1.725-1.333,2.685-2.127
				c1.951-1.541,3.821-3.182,3.821-3.182l-2.491-2.89c0,0-1.832,1.6-3.73,3.108c-0.937,0.773-1.89,1.523-2.617,2.067
				C1012.286,216.106,1011.804,216.476,1011.804,216.476z"/>
		</g>
		<g>
			<path fill="#272525" d="M999.79,224.315l1.815,3.354c0,0,2.211-1.209,4.341-2.54c2.147-1.307,4.189-2.75,4.189-2.75l-2.168-3.14
				c0,0-1.979,1.397-4.034,2.651C1001.892,223.167,999.79,224.315,999.79,224.315z"/>
		</g>
		<g>
			<path fill="#272525" d="M986.751,229.135l0.559,3.773c0,0,0.639-0.131,1.608-0.321c0.981-0.148,2.217-0.534,3.458-0.901
				c1.243-0.36,2.408-0.879,3.319-1.195c0.883-0.364,1.454-0.637,1.454-0.637l-1.54-3.492c0,0-0.537,0.264-1.359,0.593
				c-0.826,0.289-1.916,0.772-3.027,1.096c-1.113,0.328-2.229,0.678-3.07,0.799C987.31,229.02,986.751,229.135,986.751,229.135z"/>
		</g>
		<g>
			<path fill="#272525" d="M975.037,225.701l-2.81,2.587c-0.025,0.018,0.51,0.478,1.288,1.182c0.722,0.768,1.979,1.446,3.188,2.17
				c1.312,0.498,2.623,1.043,3.657,1.153c0.506,0.1,0.938,0.176,1.233,0.234c0.3,0.065,0.467,0.037,0.467,0.047l0.367-3.799
				c-0.009,0.025-0.534-0.064-1.318-0.219c-0.815-0.069-1.764-0.514-2.75-0.857c-0.872-0.56-1.816-1.009-2.352-1.618
				C975.429,226.046,975.011,225.727,975.037,225.701z"/>
		</g>
	</g>
	<g>
		<g>
			<path fill="#272525" d="M970.221,213.448l-3.803,0.362c-0.022,0.046,0.063,0.624,0.157,1.549
				c0.009,0.118,0.027,0.238,0.041,0.359l0.02,0.187l0.012,0.096l0.04,0.285c0.071,0.27,0.144,0.555,0.224,0.843
				c0.154,0.59,0.317,1.214,0.48,1.841c0.264,1.264,0.868,2.471,1.188,3.397c0.324,0.931,0.688,1.508,0.688,1.508l3.402-1.72
				c0,0-0.301-0.465-0.573-1.279c-0.276-0.812-0.803-1.816-1.04-2.969c-0.146-0.558-0.294-1.123-0.435-1.652
				c-0.066-0.265-0.138-0.513-0.2-0.758l-0.001-0.01l-0.004-0.006l-0.001-0.004c0.062,0.391,0.017,0.111,0.03,0.19l-0.005-0.026
				l-0.001-0.043l-0.01-0.1l-0.023-0.185c-0.014-0.123-0.023-0.244-0.033-0.359C970.273,214.046,970.188,213.406,970.221,213.448z"
				/>
		</g>
		<g>
			<path fill="#272525" d="M976.509,203.441l-1.944-3.277c0,0-0.595,0.303-1.415,0.899c-0.408,0.309-0.882,0.673-1.391,1.05
				c-0.465,0.45-0.966,0.931-1.46,1.409c-0.929,1.032-1.756,2.175-2.236,3.128c-0.56,0.909-0.69,1.638-0.728,1.618l3.571,1.351
				c0,0,0.695-1.95,2.186-3.496C974.514,204.52,976.509,203.441,976.509,203.441z"/>
		</g>
		<g>
			<path fill="#272525" d="M989.604,199.904l-0.188-3.809c0,0-2.575,0.121-5.127,0.585c-1.271,0.25-2.538,0.524-3.47,0.827
				c-0.945,0.249-1.56,0.49-1.56,0.49l1.257,3.602c0,0,0.529-0.213,1.373-0.435c0.817-0.264,1.944-0.502,3.082-0.731
				C987.267,200.017,989.605,199.904,989.604,199.904z"/>
		</g>
		<g>
			<path fill="#272525" d="M1003.389,201.641l1.129-3.643c0,0-0.615-0.184-1.538-0.46c-0.941-0.209-2.178-0.58-3.445-0.767
				c-2.524-0.496-5.092-0.635-5.092-0.629l-0.25,3.806c0,0,2.351,0.126,4.65,0.581c1.167,0.165,2.286,0.514,3.146,0.693
				C1002.83,201.471,1003.389,201.641,1003.389,201.641z"/>
		</g>
		<g>
			<path fill="#272525" d="M1015.337,208.272l2.586-2.805c-0.001,0-0.473-0.455-1.245-1.069c-0.736-0.652-1.801-1.407-2.893-2.119
				c-1.078-0.725-2.234-1.328-3.084-1.797c-0.881-0.414-1.465-0.694-1.465-0.694l-1.587,3.467c0,0,0.529,0.25,1.313,0.619
				c0.758,0.424,1.787,0.959,2.743,1.603c0.968,0.635,1.902,1.292,2.543,1.87C1014.922,207.882,1015.337,208.272,1015.337,208.272z"
				/>
		</g>
		<g>
			<path fill="#272525" d="M1022.179,219.705l3.696-0.943c0,0-0.171-0.634-0.432-1.587c-0.312-0.938-0.787-2.175-1.335-3.373
				c-0.613-1.173-1.195-2.36-1.793-3.16c-0.552-0.824-0.925-1.374-0.925-1.374l-3.05,2.292c0,0,0.312,0.47,0.782,1.178
				c0.516,0.678,1.009,1.701,1.54,2.7c0.464,1.033,0.871,2.09,1.141,2.895C1022.031,219.155,1022.179,219.705,1022.179,219.705z"/>
		</g>
		<g>
			<path fill="#272525" d="M1023.006,233.561l3.791,0.396c0.403,0.084,0.229-10.466-0.105-10.246l-3.778,0.514
				C1023.252,224.394,1023.353,233.517,1023.006,233.561z"/>
		</g>
	</g>
	<g>
		<g>
			<path fill="#272525" d="M1019.28,246.971l3.451,1.631c0,0,0.263-0.581,0.614-1.477c0.354-0.889,0.821-2.081,1.295-3.27
				c0.501-1.182,0.694-2.469,0.976-3.388c0.235-0.927,0.399-1.551,0.399-1.551l-3.726-0.83c0,0-0.146,0.571-0.367,1.423
				c-0.259,0.837-0.427,2.011-0.891,3.1c-0.437,1.091-0.867,2.184-1.195,3.002C1019.523,246.437,1019.277,246.971,1019.28,246.971z"
				/>
		</g>
		<g>
			<path fill="#272525" d="M1011.494,258.716l2.904,2.476c0,0,0.404-0.49,1.011-1.217c0.59-0.739,1.456-1.667,2.134-2.75
				c0.719-1.048,1.434-2.096,1.971-2.884c0.557-0.773,0.849-1.343,0.849-1.343l-3.273-1.954c0,0-0.268,0.528-0.796,1.253
				c-0.504,0.732-1.17,1.71-1.837,2.689c-0.629,1.011-1.452,1.885-2.01,2.583C1011.873,258.257,1011.494,258.716,1011.494,258.716z"
				/>
		</g>
		<g>
			<path fill="#272525" d="M1001.247,268.641l2.4,2.959c0,0,0.507-0.367,1.205-1.002c0.71-0.619,1.649-1.448,2.594-2.275
				c0.962-0.809,1.87-1.683,2.515-2.371c0.664-0.678,1.103-1.127,1.103-1.127l-2.729-2.664c0,0-0.419,0.429-1.05,1.066
				c-0.611,0.66-1.474,1.492-2.398,2.265c-0.904,0.793-1.81,1.587-2.486,2.181C1001.734,268.281,1001.247,268.641,1001.247,268.641z
				"/>
		</g>
		<g>
			<path fill="#272525" d="M989.473,276.929l2.019,3.239c0,0,2.144-1.261,4.187-2.71c1.025-0.703,2.056-1.413,2.83-1.941
				c0.778-0.519,1.256-0.922,1.256-0.922l-2.264-3.069c0,0-0.458,0.391-1.213,0.894c-0.753,0.514-1.749,1.192-2.748,1.875
				C991.572,275.696,989.473,276.929,989.473,276.929z"/>
		</g>
		<g>
			<path fill="#272525" d="M976.843,283.985l1.717,3.403c0,0,0.555-0.277,1.388-0.698c0.832-0.419,1.946-0.966,3.023-1.59
				c2.176-1.2,4.352-2.406,4.352-2.406l-1.908-3.304c0,0-2.125,1.18-4.25,2.351c-1.056,0.609-2.147,1.148-2.965,1.557
				C977.385,283.708,976.843,283.985,976.843,283.985z"/>
		</g>
		<g>
			<path fill="#272525" d="M963.654,290.054l1.489,3.513c0,0,2.271-0.972,4.548-1.957c2.253-1.042,4.506-2.08,4.506-2.08
				l-1.632-3.449c0,0-2.216,1.024-4.429,2.042C965.897,289.085,963.654,290.054,963.654,290.054z"/>
		</g>
		<g>
			<path fill="#272525" d="M950.109,295.329l1.291,3.591c0,0,2.324-0.853,4.647-1.7c2.304-0.904,4.609-1.808,4.609-1.808
				l-1.418-3.543c0,0-2.27,0.895-4.543,1.783C952.402,294.49,950.109,295.329,950.109,295.329z"/>
		</g>
	</g>
	<g>
		<g>
			<path fill="#272525" d="M936.297,299.958l1.138,3.644c0,0,2.354-0.744,4.715-1.487c2.34-0.793,4.679-1.588,4.679-1.588
				l-1.231-3.608c0,0-2.319,0.783-4.635,1.566C938.628,299.22,936.297,299.958,936.297,299.958z"/>
		</g>
		<g>
			<path fill="#272525" d="M922.298,304.037l1.003,3.683c0,0,2.385-0.66,4.764-1.318c2.367-0.693,4.744-1.386,4.744-1.386
				l-1.091-3.661c0,0-2.353,0.691-4.698,1.379C924.66,303.387,922.298,304.037,922.298,304.037z"/>
		</g>
		<g>
			<path fill="#272525" d="M908.167,307.632l0.883,3.72c0,0,2.396-0.588,4.795-1.174c2.395-0.609,4.785-1.223,4.785-1.223
				l-0.962-3.691c0,0-2.368,0.604-4.744,1.212C910.547,307.054,908.167,307.632,908.167,307.632z"/>
		</g>
		<g>
			<path fill="#272525" d="M893.918,310.792l0.771,3.734c0,0,2.414-0.511,4.826-1.024c2.412-0.535,4.821-1.063,4.821-1.063
				l-0.843-3.722c0,0-2.396,0.529-4.784,1.058C896.316,310.278,893.918,310.792,893.918,310.792z"/>
		</g>
		<g>
			<path fill="#272525" d="M879.585,313.537l0.663,3.757c0,0,2.43-0.444,4.858-0.883c2.425-0.47,4.848-0.932,4.848-0.932
				l-0.738-3.743c0,0-2.405,0.462-4.809,0.923C881.997,313.099,879.585,313.537,879.585,313.537z"/>
		</g>
		<g>
			<path fill="#272525" d="M865.169,315.443l0.474,3.789c0,0,2.453-0.221,4.914-0.44c1.228-0.074,2.461-0.274,3.382-0.433
				c0.921-0.152,1.533-0.252,1.533-0.252l-0.609-3.766c0,0-0.597,0.102-1.492,0.245c-0.896,0.154-2.09,0.349-3.322,0.424
				C867.608,315.224,865.169,315.443,865.169,315.443z"/>
		</g>
		<g>
			<polygon fill="#272525" points="850.629,316.735 851.006,320.533 860.832,319.66 860.39,315.867 			"/>
		</g>
	</g>
	<g>
		<g>
			<polygon fill="#272525" points="836.079,318.026 836.361,321.83 846.191,320.958 845.843,317.159 			"/>
		</g>
		<g>
			<path fill="#272525" d="M821.497,318.925l0.214,3.812c0,0,2.459-0.102,4.917-0.208c1.233-0.053,2.464-0.105,3.389-0.145
				c0.922-0.077,1.535-0.125,1.535-0.125l-0.252-3.807c0,0-0.607,0.048-1.528,0.117c-0.917,0.042-2.145,0.096-3.367,0.149
				C823.947,318.821,821.497,318.925,821.497,318.925z"/>
		</g>
		<g>
			<polygon fill="#272525" points="806.891,319.551 807.048,323.36 816.892,322.943 816.7,319.131 			"/>
		</g>
		<g>
			<polygon fill="#272525" points="792.28,320.179 792.381,323.991 802.224,323.567 802.085,319.755 			"/>
		</g>
		<g>
			<polygon fill="#272525" points="777.653,320.402 777.713,324.219 787.563,324.149 787.479,320.333 			"/>
		</g>
		<g>
			<polygon fill="#272525" points="763.023,320.513 763.039,324.331 772.89,324.261 772.844,320.444 			"/>
		</g>
		<g>
			<polygon fill="#272525" points="748.394,320.624 748.374,324.44 758.224,324.371 758.216,320.552 			"/>
		</g>
	</g>
	<g>
		<g>
			<polygon fill="#272525" points="733.759,320.397 733.708,324.216 743.555,324.381 743.586,320.562 			"/>
		</g>
		<g>
			<polygon fill="#272525" points="719.119,320.158 719.051,323.97 728.895,324.134 728.951,320.322 			"/>
		</g>
		<g>
			<polygon fill="#272525" points="704.488,319.889 704.392,323.7 714.231,323.895 714.312,320.08 			"/>
		</g>
		<g>
			<polygon fill="#272525" points="689.843,319.465 689.742,323.276 699.572,323.567 699.673,319.751 			"/>
		</g>
		<g>
			<polygon fill="#272525" points="675.206,319.042 675.091,322.859 684.928,323.137 685.033,319.329 			"/>
		</g>
		<g>
			<polygon fill="#272525" points="660.559,318.618 660.443,322.435 670.278,322.72 670.393,318.905 			"/>
		</g>
		<g>
			<polygon fill="#272525" points="645.914,318.188 645.805,322 655.632,322.29 655.75,318.478 			"/>
		</g>
	</g>
	<g>
		<g>
			<polygon fill="#272525" points="631.263,317.754 631.16,321.566 640.995,321.861 641.1,318.042 			"/>
		</g>
		<g>
			<polygon fill="#272525" points="616.608,317.413 616.525,321.232 626.353,321.425 626.455,317.608 			"/>
		</g>
		<g>
			<polygon fill="#272525" points="601.951,317.149 601.889,320.963 611.718,321.143 611.794,317.322 			"/>
		</g>
		<g>
			<polygon fill="#272525" points="587.288,316.877 587.25,320.693 597.078,320.873 597.135,317.059 			"/>
		</g>
		<g>
			<polygon fill="#272525" points="572.622,316.877 572.618,320.693 582.443,320.647 582.473,316.83 			"/>
		</g>
		<g>
			<polygon fill="#272525" points="557.949,316.94 557.985,320.752 567.807,320.713 567.798,316.894 			"/>
		</g>
		<g>
			<polygon fill="#272525" points="543.281,317.006 543.356,320.815 553.178,320.778 553.131,316.961 			"/>
		</g>
	</g>
	<g>
		<g>
			<polygon fill="#272525" points="528.617,317.354 528.721,321.166 538.547,320.921 538.463,317.11 			"/>
		</g>
		<g>
			<polygon fill="#272525" points="513.954,317.824 514.097,321.636 523.916,321.307 523.798,317.49 			"/>
		</g>
		<g>
			<polygon fill="#272525" points="499.296,318.433 499.477,322.239 509.292,321.82 509.139,318.009 			"/>
		</g>
		<g>
			<polygon fill="#272525" points="484.646,319.206 484.868,323.023 494.674,322.483 494.483,318.677 			"/>
		</g>
		<g>
			<polygon fill="#272525" points="470,320.148 470.268,323.952 480.069,323.301 479.833,319.496 			"/>
		</g>
		<g>
			<polygon fill="#272525" points="455.366,321.256 455.68,325.059 465.47,324.292 465.189,320.477 			"/>
		</g>
		<g>
			<polygon fill="#272525" points="440.751,322.573 441.116,326.367 450.896,325.473 450.563,321.677 			"/>
		</g>
	</g>
	<g>
		<g>
			<path fill="#272525" d="M426.148,324.096l0.427,3.791c0,0,2.434-0.273,4.874-0.547c2.443-0.245,4.885-0.49,4.885-0.49
				l-0.385-3.797c0,0-2.45,0.249-4.903,0.493C428.596,323.82,426.148,324.096,426.148,324.096z"/>
		</g>
		<g>
			<polygon fill="#272525" points="411.569,325.838 412.055,329.626 421.796,328.426 421.355,324.635 			"/>
		</g>
		<g>
			<polygon fill="#272525" points="397.021,327.807 397.568,331.585 407.289,330.234 406.788,326.452 			"/>
		</g>
		<g>
			<path fill="#272525" d="M382.507,330.05l0.615,3.768c0.001,0,2.419-0.41,4.845-0.771c2.425-0.372,4.848-0.742,4.848-0.742
				l-0.571-3.778c0,0-2.435,0.375-4.869,0.75C384.94,329.638,382.507,330.05,382.507,330.05z"/>
		</g>
		<g>
			<path fill="#272525" d="M368.035,332.574l0.69,3.753c0,0,2.411-0.445,4.825-0.89c2.419-0.408,4.839-0.818,4.839-0.818
				l-0.641-3.764c0,0-2.431,0.411-4.86,0.825C370.46,332.129,368.035,332.574,368.035,332.574z"/>
		</g>
		<g>
			<path fill="#272525" d="M353.615,335.385l0.771,3.736c0,0,2.399-0.491,4.802-0.978c2.399-0.514,4.813-0.932,4.813-0.932
				l-0.713-3.749c0,0-2.43,0.424-4.841,0.934C356.029,334.894,353.615,335.385,353.615,335.385z"/>
		</g>
		<g>
			<polygon fill="#272525" points="339.254,338.497 340.109,342.214 349.683,340.085 348.884,336.353 			"/>
		</g>
	</g>
	<g>
		<g>
			<path fill="#272525" d="M324.966,341.955l0.945,3.698c0,0,2.379-0.588,4.761-1.179c2.379-0.583,4.764-1.162,4.764-1.162
				l-0.883-3.713c0,0-2.399,0.585-4.796,1.168C327.359,341.36,324.966,341.955,324.966,341.955z"/>
		</g>
		<g>
			<path fill="#272525" d="M310.775,345.796l1.043,3.673c0,0,2.358-0.667,4.718-1.339c2.368-0.621,4.736-1.254,4.736-1.254
				l-0.976-3.684c0,0-2.383,0.628-4.772,1.263C313.152,345.128,310.775,345.796,310.775,345.796z"/>
		</g>
		<g>
			<path fill="#272525" d="M296.688,350.02l1.151,3.642c0,0,2.336-0.732,4.677-1.465c2.33-0.754,4.695-1.398,4.695-1.398
				l-1.076-3.663c0,0-2.384,0.647-4.733,1.413C299.045,349.284,296.688,350.02,296.688,350.02z"/>
		</g>
		<g>
			<polygon fill="#272525" points="282.724,354.646 283.984,358.244 293.263,355.099 292.075,351.465 			"/>
		</g>
		<g>
			<path fill="#272525" d="M268.917,359.742l1.382,3.555c0,0,2.271-0.913,4.579-1.735c2.298-0.846,4.596-1.691,4.596-1.691
				l-1.303-3.595c0,0-2.316,0.858-4.633,1.714C271.213,358.82,268.917,359.742,268.917,359.742z"/>
		</g>
		<g>
			<path fill="#272525" d="M255.297,365.333l1.514,3.506c0,0,2.248-0.979,4.492-1.948c2.272-0.911,4.546-1.813,4.546-1.813
				l-1.426-3.542c0,0-2.292,0.911-4.587,1.836C257.568,364.357,255.297,365.333,255.297,365.333z"/>
		</g>
		<g>
			<path fill="#272525" d="M241.894,371.427l1.654,3.437c0,0,2.211-1.038,4.423-2.081c1.108-0.519,2.212-1.042,3.045-1.432
				c0.837-0.363,1.403-0.609,1.403-0.609l-1.557-3.483c0,0-0.567,0.247-1.418,0.614c-0.839,0.396-1.958,0.919-3.077,1.448
				C244.133,370.375,241.894,371.427,241.894,371.427z"/>
		</g>
	</g>
	<g>
		<g>
			<path fill="#272525" d="M228.731,378.058l1.798,3.363c0,0,0.529-0.304,1.351-0.715c0.817-0.413,1.907-0.972,3-1.52
				c2.179-1.118,4.351-2.227,4.351-2.227l-1.695-3.424c0,0-2.203,1.13-4.407,2.254c-1.099,0.561-2.203,1.126-3.027,1.545
				C229.271,377.748,228.731,378.058,228.731,378.058z"/>
		</g>
		<g>
			<path fill="#272525" d="M215.914,385.328l1.954,3.285c0,0,2.101-1.252,4.2-2.507c2.139-1.183,4.278-2.364,4.278-2.364
				l-1.852-3.337c0,0-2.163,1.202-4.325,2.397C218.043,384.067,215.914,385.328,215.914,385.328z"/>
		</g>
		<g>
			<path fill="#272525" d="M203.437,393.188l2.119,3.178c0,0,2.041-1.337,4.084-2.671c2.028-1.371,4.128-2.619,4.128-2.621
				l-2.008-3.245c0,0-2.121,1.267-4.182,2.648C205.509,391.836,203.437,393.188,203.437,393.188z"/>
		</g>
		<g>
			<polygon fill="#272525" points="191.388,401.618 193.588,404.734 201.584,399.052 199.426,395.908 			"/>
		</g>
		<g>
			<path fill="#272525" d="M179.521,410.414l2.399,2.973c0,0,0.475-0.386,1.187-0.958c0.704-0.58,1.653-1.339,2.634-2.058
				c1.953-1.451,3.904-2.905,3.904-2.905l-2.223-3.096c0,0-2,1.48-3.992,2.967c-1.008,0.736-1.976,1.514-2.696,2.102
				C180.009,410.024,179.521,410.414,179.521,410.414z"/>
		</g>
		<g>
			<path fill="#272525" d="M168.407,420.225l2.659,2.739c0,0,1.763-1.668,3.529-3.34c1.829-1.601,3.66-3.199,3.66-3.199
				l-2.478-2.905c0,0-1.875,1.645-3.751,3.281C170.218,418.511,168.407,420.225,168.407,420.225z"/>
		</g>
		<g>
			<path fill="#272525" d="M158.266,431.071l2.932,2.441c0,0,1.595-1.828,3.19-3.644c0.781-0.928,1.639-1.79,2.27-2.446
				c0.632-0.658,1.053-1.09,1.053-1.09l-2.743-2.65c0,0-0.431,0.443-1.082,1.111c-0.649,0.679-1.527,1.556-2.331,2.515
				C159.913,429.186,158.266,431.071,158.266,431.071z"/>
		</g>
	</g>
	<g>
		<g>
			<path fill="#272525" d="M149.496,443.129l3.238,2.016c-0.003,0,0.274-0.536,0.793-1.278c0.515-0.749,1.199-1.742,1.881-2.734
				c1.32-2.022,2.852-3.896,2.852-3.896l-3.032-2.328c0,0-1.577,1.942-2.949,4.048c-0.713,1.033-1.422,2.06-1.956,2.838
				C149.784,442.566,149.496,443.129,149.496,443.129z"/>
		</g>
		<g>
			<path fill="#272525" d="M142.777,456.541l3.563,1.358c0,0,0.212-0.559,0.531-1.398c0.276-0.852,0.792-1.931,1.329-3.004
				c0.524-1.082,1.048-2.161,1.443-2.969c0.372-0.816,0.699-1.32,0.699-1.32l-3.345-1.836c0,0-0.344,0.529-0.735,1.392
				c-0.416,0.848-0.968,1.986-1.518,3.118c-0.567,1.132-1.108,2.269-1.41,3.173C143.002,455.946,142.777,456.541,142.777,456.541z"
				/>
		</g>
		<g>
			<path fill="#272525" d="M139.182,471.247l3.806,0.329c0,0,0.332-2.345,0.662-4.691c0.555-2.305,1.187-4.588,1.187-4.588
				l-3.673-1.048c0,0-0.677,2.462-1.266,4.944C139.54,468.717,139.182,471.247,139.182,471.247z"/>
		</g>
		<g>
			<path fill="#272525" d="M140.167,486.358l3.743-0.763l-0.213-0.9c-0.328-1.385-0.401-2.823-0.613-4.228l-0.267-2.123
				c-0.034-0.71,0.007-1.423,0.007-2.138l-3.824,0.032c0.003,0.772-0.035,1.539-0.002,2.305l0.288,2.29
				c0.224,1.518,0.315,3.063,0.654,4.559L140.167,486.358z"/>
		</g>
		<g>
			<path fill="#272525" d="M145.258,500.613l3.391-1.746c0,0-0.305-0.512-0.688-1.316c-0.354-0.814-0.821-1.908-1.295-3.001
				c-0.514-1.067-0.826-2.22-1.12-3.063c-0.276-0.841-0.467-1.409-0.467-1.409l-3.647,1.116c0,0,0.2,0.599,0.5,1.51
				c0.313,0.904,0.652,2.131,1.201,3.285c0.504,1.168,1.01,2.34,1.389,3.219C144.931,500.065,145.258,500.613,145.258,500.613z"/>
		</g>
		<g>
			<path fill="#272525" d="M153.988,512.979l2.792-2.6c0,0-0.409-0.435-1.02-1.084c-0.604-0.654-1.306-1.617-2.061-2.53
				c-0.769-0.909-1.44-1.891-1.916-2.646c-0.492-0.735-0.819-1.231-0.819-1.231l-3.215,2.056c0,0,0.352,0.528,0.881,1.328
				c0.51,0.803,1.229,1.855,2.057,2.827c0.805,0.989,1.562,2.022,2.21,2.72C153.555,512.514,153.988,512.979,153.988,512.979z"/>
		</g>
		<g>
			<path fill="#272525" d="M165.513,522.68l2.116-3.179c0,0-0.498-0.336-1.243-0.833c-0.762-0.48-1.706-1.213-2.64-1.952
				c-1.933-1.417-3.653-3.07-3.653-3.07l-2.569,2.825c0,0,1.841,1.759,3.885,3.262c0.991,0.786,1.992,1.561,2.795,2.064
				C164.989,522.324,165.513,522.68,165.513,522.68z"/>
		</g>
	</g>
	<g>
		<g>
			<path fill="#272525" d="M178.687,529.801l1.53-3.5c0,0-0.553-0.243-1.378-0.618c-0.828-0.36-1.927-0.858-2.989-1.426
				c-1.068-0.557-2.136-1.104-2.938-1.518c-0.773-0.455-1.293-0.764-1.293-0.764l-1.908,3.309c0,0,0.544,0.318,1.358,0.793
				c0.841,0.435,1.958,1.014,3.075,1.587c1.11,0.6,2.25,1.118,3.115,1.493C178.114,529.539,178.687,529.801,178.687,529.801z"/>
		</g>
		<g>
			<path fill="#272525" d="M192.692,534.844l1.078-3.662c0,0-0.581-0.171-1.454-0.435c-0.874-0.255-2.034-0.609-3.171-1.022
				c-1.147-0.391-2.29-0.784-3.152-1.08c-0.843-0.333-1.402-0.55-1.402-0.55l-1.367,3.562c0,0,0.581,0.223,1.457,0.568
				c0.886,0.311,2.067,0.713,3.248,1.12c1.177,0.424,2.371,0.786,3.267,1.048C192.097,534.662,192.692,534.844,192.692,534.844z"/>
		</g>
		<g>
			<path fill="#272525" d="M207.09,538.346l0.744-3.74c0,0-2.397-0.44-4.762-1.012c-2.378-0.515-4.726-1.146-4.726-1.146
				l-0.954,3.692c0,0,2.402,0.643,4.836,1.174C204.648,537.896,207.09,538.346,207.09,538.346z"/>
		</g>
		<g>
			<path fill="#272525" d="M221.673,540.727l0.499-3.783c0,0-2.423-0.303-4.833-0.683c-2.414-0.344-4.813-0.782-4.813-0.782
				l-0.652,3.762c0,0,2.439,0.449,4.896,0.795C219.219,540.423,221.673,540.727,221.673,540.727z"/>
		</g>
		<g>
			<path fill="#272525" d="M236.333,542.295l0.319-3.808c0,0-2.439-0.22-4.869-0.442c-2.441-0.222-4.865-0.515-4.865-0.515
				l-0.43,3.786c0,0,2.454,0.306,4.92,0.523C233.87,542.065,236.333,542.295,236.333,542.295z"/>
		</g>
		<g>
			<polygon fill="#272525" points="251.005,543.299 251.219,539.484 241.433,538.86 241.158,542.67 			"/>
		</g>
		<g>
			<polygon fill="#272525" points="265.65,544.026 265.833,540.214 256.012,539.739 255.821,543.554 			"/>
		</g>
	</g>
</g>
<g>
	<g>
		<g>
			<g>
				<polygon fill="#35322F" points="325.468,298.554 322.499,333.031 354.383,350.731 267.168,363.16 				"/>
			</g>
		</g>
	</g>
</g>
<g>
	<g>
		<g>
			<g>
				<path fill="#8E0D57" d="M91.186,256.363c-16.738,0-30.432,13.564-30.432,30.359c0,8.945,3.334,16.057,10.055,22.501
					c6.687,6.466,36.271,14.253,20.401,50.279c11.342-11.472,14.737-44.557,20.657-50.513c5.724-5.749,9.792-13.491,9.792-22.267
					C121.66,269.927,108.011,256.363,91.186,256.363z M91.373,311.271c-13.588,0-24.595-11.024-24.595-24.614
					c0-13.595,11.007-24.608,24.595-24.608c13.595,0,24.611,11.013,24.611,24.608C115.984,300.247,104.968,311.271,91.373,311.271z"
					/>
			</g>
		</g>
	</g>
</g>
<g>
	<g>
		<g>
			<polygon fill="#E0B814" points="191.651,608.98 213.463,608.98 243.239,639.661 161.127,639.661 			"/>
		</g>
	</g>
	<g>
		<g>
			<polygon fill="#EDE2CC" points="234.02,630.16 170.58,630.16 171.475,629.258 233.144,629.258 			"/>
		</g>
	</g>
	<g>
		<g>
			<path fill="#5A4C45" d="M247.397,660.707h-92.294l5.685-19.245h82.82L247.397,660.707z M156.313,659.807H246.3l-3.434-17.446
				h-81.405L156.313,659.807z"/>
		</g>
	</g>
	<g>
		<g>
			<rect x="115.768" y="627.386" fill="#5A4C45" width="26.764" height="13.042"/>
		</g>
	</g>
	<g>
		<g>
			<rect x="65.239" y="634.949" fill="#5A4C45" width="28.573" height="5.715"/>
		</g>
	</g>
	<g>
		<g>
			<rect x="96.816" y="629.463" fill="#5A4C45" width="15.941" height="10.98"/>
		</g>
	</g>
	<g>
		<g>
			<rect x="96.816" y="624.071" fill="#5A4C45" width="15.941" height="4.404"/>
		</g>
	</g>
	<g>
		<g>
			<rect x="66.067" y="631.688" fill="#5A4C45" width="26.919" height="2.234"/>
		</g>
	</g>
	<polygon fill="#5A4C45" points="304.79,635 292.329,635 272.99,635 269.298,635 264.482,640 268.467,640 282.666,640 285.55,640 
		309.006,640 	"/>
	<polygon fill="#5A4C45" points="275.209,633 286.555,633 302.835,633 299.792,628 290.646,628 276.429,628 274.131,628 
		270.647,633 273.634,633 	"/>
	<rect x="65" y="647" fill="#404F3E" width="258" height="131"/>
	<g>
		<g>
			<path fill="#B5AA95" d="M64.732,776.649h258.019c0,0,2.964,12.368-9.658,12.018c-20.785-0.586-242.081,1.484-244.98,0
				C63.672,786.398,65.212,781.459,64.732,776.649z"/>
		</g>
	</g>
	<g>
		<g>
			<polygon fill="#EDE2CC" points="322.641,664.409 64.938,664.409 64.938,640.664 297.89,640.664 322.641,640.664 			"/>
		</g>
	</g>
	<g>
		<g>
			<path fill="#A88F6A" d="M79.526,661.916c-2.984,0-5.415-2.43-5.415-5.415c0-2.989,2.43-5.417,5.415-5.417
				c2.983,0,5.414,2.428,5.414,5.417C84.939,659.486,82.509,661.916,79.526,661.916z M79.526,651.988
				c-2.487,0-4.51,2.021-4.51,4.513c0,2.488,2.023,4.508,4.51,4.508c2.486,0,4.509-2.02,4.509-4.508
				C84.035,654.009,82.012,651.988,79.526,651.988z"/>
		</g>
	</g>
	<g>
		<path fill="#5A4C45" d="M263.956,715.701c0,34.634-28.067,62.71-62.71,62.71c-34.635,0-62.71-28.076-62.71-62.71
			c0-34.633,28.075-62.711,62.71-62.711C235.888,652.99,263.956,681.068,263.956,715.701z"/>
	</g>
	<g>
		<path fill="#EDE2CC" d="M201.245,778.866c-34.827,0-63.163-28.338-63.163-63.165c0-34.828,28.335-63.165,63.163-63.165
			c34.835,0,63.172,28.337,63.172,63.165C264.417,750.528,236.08,778.866,201.245,778.866z M201.245,653.443
			c-34.326,0-62.258,27.931-62.258,62.258c0,34.332,27.933,62.261,62.258,62.261c34.337,0,62.268-27.929,62.268-62.261
			C263.513,681.374,235.583,653.443,201.245,653.443z"/>
	</g>
	<g>
		<path fill="#5A4C45" d="M257.263,715.701c0,30.939-25.074,56.021-56.018,56.021c-30.939,0-56.014-25.082-56.014-56.021
			c0-30.938,25.075-56.021,56.014-56.021C232.189,659.68,257.263,684.764,257.263,715.701z"/>
	</g>
	<g opacity="0.2">
		<path fill="#261D0B" d="M258.028,717.729c0,35.424-28.708,64.143-64.137,64.143c-35.424,0-64.133-28.719-64.133-64.143
			c0-35.422,28.709-64.142,64.133-64.142C229.32,653.588,258.028,682.308,258.028,717.729z"/>
	</g>
	<path fill="#493736" d="M188.081,682.886l-9.311-25.245c-5.39,0.973-28.738,14.437-37.008,39.158
		c-4.753,14.211-4.942,33.651,7.581,53.251l21.625-15.712C169.026,733.758,153.047,698.802,188.081,682.886z"/>
	<g>
		<path fill="#DDB760" d="M201.245,772.225c-31.162,0-56.521-25.354-56.521-56.523c0-31.167,25.359-56.528,56.521-56.528
			c31.176,0,56.524,25.361,56.524,56.528C257.77,746.87,232.421,772.225,201.245,772.225z M201.245,660.186
			c-30.611,0-55.514,24.901-55.514,55.516c0,30.608,24.903,55.516,55.514,55.516c30.618,0,55.519-24.907,55.519-55.516
			C256.764,685.087,231.863,660.186,201.245,660.186z"/>
	</g>
	<g>
		<path fill="#5A4C45" d="M235.538,715.701c0,19.188-15.548,34.739-34.743,34.739c-19.181,0-34.735-15.552-34.735-34.739
			c0-19.188,15.555-34.74,34.735-34.74C219.99,680.961,235.538,696.513,235.538,715.701z"/>
	</g>
	<g>
		<path fill="#DDB760" d="M200.795,750.89c-19.404,0-35.19-15.786-35.19-35.188c0-19.404,15.786-35.191,35.19-35.191
			c19.406,0,35.193,15.787,35.193,35.191C235.988,735.104,220.201,750.89,200.795,750.89z M200.795,681.41
			c-18.901,0-34.285,15.387-34.285,34.291c0,18.908,15.384,34.288,34.285,34.288c18.913,0,34.293-15.38,34.293-34.288
			C235.088,696.797,219.708,681.41,200.795,681.41z"/>
	</g>
	<g>
		<path fill="#5A4C45" d="M229.22,715.701c0,15.449-12.527,27.975-27.975,27.975c-15.445,0-27.967-12.525-27.967-27.975
			c0-15.446,12.522-27.975,27.967-27.975C216.693,687.727,229.22,700.255,229.22,715.701z"/>
	</g>
	<g>
		<path fill="#DDB760" d="M200.795,744.123c-15.67,0-28.422-12.754-28.422-28.422c0-15.672,12.752-28.423,28.422-28.423
			c15.671,0,28.427,12.751,28.427,28.423C229.222,731.369,216.466,744.123,200.795,744.123z M200.795,688.181
			c-15.17,0-27.517,12.349-27.517,27.521c0,15.175,12.347,27.521,27.517,27.521c15.175,0,27.527-12.347,27.527-27.521
			C228.322,700.529,215.97,688.181,200.795,688.181z"/>
	</g>
	<g>
		<g>
			<path fill="#EDE2CC" d="M208.47,706.902c0,5.978-4.847,10.827-10.825,10.827c-5.986,0-10.831-4.85-10.831-10.827
				c0-5.981,4.845-10.831,10.831-10.831C203.623,696.071,208.47,700.921,208.47,706.902z"/>
		</g>
	</g>
	<g opacity="0.6">
		<g>
			<path fill="#926F4D" d="M207.135,713.125c0,1.497-1.21,2.705-2.705,2.705c-1.49,0-2.704-1.208-2.704-2.705s1.214-2.71,2.704-2.71
				C205.925,710.415,207.135,711.628,207.135,713.125z"/>
		</g>
	</g>
	<g>
		<g>
			<path fill="#EDE2CC" d="M208.695,713.125c0,1.497-1.214,2.705-2.707,2.705c-1.488,0-2.702-1.208-2.702-2.705
				s1.214-2.71,2.702-2.71C207.481,710.415,208.695,711.628,208.695,713.125z"/>
		</g>
	</g>
</g>
</svg>
